if (_typeface_js && _typeface_js.loadFace) _typeface_js.loadFace({"glyphs":{"0":{"ha":811,"x_min":67,"x_max":743,"o":"m 743 338 l 743 576 q 654 834 743 736 q 407 932 565 932 q 158 833 250 932 q 67 576 67 735 l 67 338 q 158 81 67 179 q 407 -17 250 -17 q 654 81 565 -17 q 743 338 743 178 m 714 338 q 633 103 714 192 q 406 10 550 10 q 179 101 263 10 q 96 338 96 193 l 96 576 q 178 814 96 722 q 406 906 261 906 q 633 811 549 906 q 714 576 714 722 l 714 338 "},"1":{"ha":574,"x_min":143,"x_max":431,"o":"m 431 0 l 431 897 l 401 897 l 143 679 l 188 679 l 401 857 l 401 0 l 431 0 "},"2":{"ha":811,"x_min":81,"x_max":749,"o":"m 749 0 l 749 26 l 114 26 q 203 238 113 125 q 318 351 254 301 q 488 453 372 386 q 706 690 706 579 q 614 865 706 808 q 413 913 538 913 q 180 833 263 913 q 97 603 97 753 l 126 603 q 421 886 126 886 q 596 844 528 886 q 678 694 678 794 q 550 525 678 603 q 356 408 404 438 q 81 0 82 240 l 749 0 "},"3":{"ha":811,"x_min":57,"x_max":751,"o":"m 751 244 q 688 413 751 351 q 515 483 624 474 q 733 694 733 511 q 631 868 733 813 q 421 913 549 913 q 181 844 267 913 q 85 619 85 769 l 114 619 q 425 886 114 886 q 610 846 535 886 q 704 694 704 796 q 435 496 704 496 l 369 496 l 369 469 l 433 469 q 724 244 724 469 q 619 64 724 126 q 407 11 533 11 q 186 72 274 11 q 86 269 86 142 l 86 303 l 57 303 l 57 289 q 161 57 57 136 q 413 -15 256 -15 q 642 44 550 -15 q 751 244 751 115 "},"4":{"ha":811,"x_min":46,"x_max":761,"o":"m 761 313 l 761 339 l 582 339 l 582 897 l 553 899 l 553 339 l 88 339 l 364 899 l 335 899 l 46 313 l 553 313 l 553 0 l 582 0 l 582 313 l 761 313 "},"5":{"ha":811,"x_min":54,"x_max":742,"o":"m 742 297 q 640 529 742 444 q 396 608 546 608 q 118 476 210 608 l 135 871 l 700 871 l 700 897 l 104 897 l 85 444 l 121 444 q 390 582 207 582 q 618 510 531 582 q 713 296 713 433 q 624 83 713 160 q 401 11 540 11 q 175 76 258 11 q 83 288 83 149 l 54 288 q 153 56 54 133 q 400 -15 242 -15 q 643 64 551 -15 q 742 297 742 149 "},"6":{"ha":811,"x_min":86,"x_max":725,"o":"m 725 619 q 633 833 725 756 q 410 907 547 907 q 183 836 271 907 q 88 624 88 760 l 88 303 q 86 290 88 300 l 86 276 q 178 64 86 140 q 401 -8 263 -8 q 626 64 540 -8 q 719 276 719 140 q 628 490 719 413 q 404 564 542 564 q 118 411 196 564 l 119 619 q 203 817 121 746 q 408 885 281 885 q 613 815 533 885 q 697 619 697 742 l 725 619 m 692 276 q 610 82 692 151 q 403 13 529 13 q 197 81 276 13 q 114 276 114 151 q 197 474 114 401 q 403 542 275 542 q 608 474 531 542 q 692 276 692 401 "},"7":{"ha":811,"x_min":92,"x_max":732,"o":"m 732 897 l 92 897 l 92 871 l 690 871 l 265 0 l 294 0 l 732 897 "},"8":{"ha":835,"x_min":58,"x_max":776,"o":"m 776 250 q 701 424 776 360 q 519 493 635 481 q 661 551 604 507 q 729 683 729 604 q 629 865 729 807 q 418 913 550 913 q 206 865 285 913 q 107 683 107 807 q 175 550 107 603 q 318 493 232 506 q 136 426 204 483 q 58 253 58 363 q 172 42 58 110 q 418 -15 267 -15 q 663 40 569 -15 q 776 250 776 108 m 700 685 q 600 543 700 593 q 419 504 522 504 q 238 543 318 504 q 136 682 136 592 q 418 886 136 886 q 700 685 700 886 m 747 251 q 642 61 747 122 q 418 11 557 11 q 194 61 281 11 q 88 251 88 124 q 419 478 88 478 q 747 251 747 478 "},"9":{"ha":811,"x_min":86,"x_max":725,"o":"m 725 633 q 633 846 725 768 q 410 919 547 919 q 185 846 272 919 q 92 633 92 768 q 183 421 92 497 q 407 349 268 349 q 693 500 615 349 l 692 264 q 609 70 690 140 q 403 0 528 0 q 197 68 276 0 q 114 264 114 139 l 86 264 q 178 51 86 128 q 401 -21 263 -21 q 628 50 540 -21 q 724 261 724 126 l 724 608 q 725 619 724 613 l 725 633 m 697 633 q 616 439 697 508 q 408 369 535 369 q 203 438 282 369 q 119 633 119 508 q 203 831 119 758 q 408 899 281 899 q 614 831 536 899 q 697 633 697 758 "}," ":{"ha":492,"x_min":0,"x_max":0,"o":""},"!":{"ha":269,"x_min":119,"x_max":150,"o":"m 150 240 l 150 942 l 121 942 l 121 240 l 150 240 m 149 15 l 149 106 q 135 119 149 119 q 119 106 119 119 l 119 15 q 135 0 119 0 q 149 15 149 0 "},"\"":{"ha":406,"x_min":107,"x_max":296,"o":"m 296 776 l 296 918 l 296 918 q 282 933 296 933 q 267 918 267 933 l 267 776 l 267 776 q 282 760 267 760 q 296 776 296 760 m 136 776 l 136 918 l 136 918 q 121 933 136 933 q 107 918 107 933 l 107 776 l 107 776 q 121 760 107 760 q 136 776 136 760 "},"#":{"ha":738,"x_min":110,"x_max":629,"o":"m 629 539 l 506 539 l 531 650 l 501 650 l 476 539 l 310 539 l 336 650 l 307 650 l 281 539 l 157 539 l 150 513 l 275 513 l 239 361 l 115 361 l 110 335 l 233 335 l 207 224 l 236 224 l 263 335 l 429 335 l 403 224 l 432 224 l 458 335 l 582 335 l 588 361 l 464 361 l 499 513 l 624 513 l 629 539 m 469 513 l 435 361 l 268 361 l 304 513 l 469 513 "},"$":{"ha":892,"x_min":50,"x_max":824,"o":"m 824 229 q 750 400 824 344 q 556 476 694 442 l 556 928 q 775 678 763 885 l 804 678 q 556 954 801 906 l 556 1046 l 526 1046 l 526 958 q 432 964 483 964 q 351 961 389 964 l 351 1046 l 322 1046 l 322 957 q 81 721 81 915 q 156 564 81 621 q 322 496 211 522 l 322 17 q 79 303 79 67 l 79 311 l 50 311 l 50 297 q 322 -11 50 47 l 322 -97 l 351 -97 l 351 -14 q 458 -22 401 -22 q 526 -18 493 -22 l 526 -97 l 556 -97 l 556 -14 q 738 60 665 3 q 824 229 824 126 m 526 483 l 351 518 l 351 933 q 432 938 389 938 q 526 932 483 938 l 526 483 m 322 525 q 176 585 224 550 q 110 721 110 635 q 322 929 110 888 l 322 525 m 794 233 q 719 79 794 139 q 556 13 656 28 l 556 447 q 760 353 710 407 q 794 233 794 315 m 526 8 q 460 4 494 4 q 351 13 401 4 l 351 489 l 526 454 l 526 8 "},"%":{"ha":1042,"x_min":79,"x_max":964,"o":"m 881 942 l 847 942 l 185 0 l 219 0 l 881 942 m 964 214 q 779 461 964 461 q 592 214 592 461 q 778 -26 592 -26 q 964 214 964 -26 m 451 667 q 265 913 451 913 q 79 667 79 913 q 264 428 79 428 q 451 667 451 428 m 933 214 q 779 0 933 0 q 622 214 622 0 q 778 435 622 435 q 933 214 933 435 m 421 667 q 265 453 421 453 q 110 667 110 453 q 264 886 110 886 q 421 667 421 886 "},"&":{"ha":838,"x_min":64,"x_max":725,"o":"m 725 -26 l 725 365 l 696 365 q 646 172 696 265 q 363 4 556 4 q 183 54 261 4 q 93 207 93 111 q 181 382 93 301 q 361 499 226 425 q 615 765 615 639 q 550 900 615 853 q 401 942 493 942 q 256 899 315 942 q 189 768 189 851 q 374 535 189 619 q 167 406 229 460 q 64 207 64 315 q 167 33 64 97 q 371 -22 254 -22 q 667 149 554 -22 q 696 218 682 179 l 696 -26 l 725 -26 m 586 767 q 399 547 586 654 q 218 767 218 625 q 278 879 218 838 q 404 915 329 915 q 529 879 479 915 q 586 767 586 839 "},"'":{"ha":243,"x_min":107,"x_max":136,"o":"m 136 776 l 136 918 l 136 918 q 121 933 136 933 q 107 918 107 933 l 107 776 l 107 776 q 121 760 107 760 q 136 776 136 760 "},"(":{"ha":324,"x_min":99,"x_max":299,"o":"m 299 -233 q 128 393 128 31 q 299 1019 128 756 l 269 1019 q 99 393 99 750 q 269 -233 99 38 l 299 -233 "},")":{"ha":324,"x_min":18,"x_max":224,"o":"m 224 393 q 47 1019 224 754 l 18 1019 q 194 393 194 756 q 18 -233 194 31 l 47 -233 q 224 393 224 33 "},"*":{"ha":472,"x_min":64,"x_max":382,"o":"m 375 694 q 368 714 382 707 l 253 775 l 368 833 q 375 854 382 840 q 363 860 371 860 q 354 857 360 860 l 238 797 l 238 918 l 238 918 q 224 933 238 933 q 208 918 208 933 l 208 797 l 93 857 l 92 857 q 82 860 86 860 q 71 854 75 860 q 78 835 64 842 l 194 775 l 79 714 q 71 694 64 706 q 93 690 79 682 l 208 751 l 208 631 l 208 631 q 224 615 208 615 q 238 631 238 615 l 238 751 l 353 690 q 375 694 368 682 "},"+":{"ha":778,"x_min":108,"x_max":669,"o":"m 669 336 l 669 363 l 403 363 l 403 601 l 374 601 l 374 363 l 108 363 l 108 336 l 374 336 l 374 93 l 403 93 l 403 336 l 669 336 "},",":{"ha":364,"x_min":138,"x_max":231,"o":"m 226 101 q 215 119 231 117 q 199 108 203 124 l 139 -107 l 139 -107 q 138 -114 138 -111 q 149 -125 138 -122 q 168 -114 164 -129 l 226 101 l 226 101 "},"-":{"ha":486,"x_min":71,"x_max":428,"o":"m 428 353 l 428 381 l 71 381 l 71 353 l 428 353 "},".":{"ha":290,"x_min":131,"x_max":160,"o":"m 160 13 l 160 103 q 146 118 160 118 q 131 103 131 118 l 131 13 q 146 -3 131 -3 q 160 13 160 -3 "},"/":{"ha":486,"x_min":3,"x_max":496,"o":"m 496 964 l 467 964 l 3 0 l 32 0 l 496 964 "},":":{"ha":339,"x_min":156,"x_max":185,"o":"m 185 540 l 185 631 l 185 631 q 171 646 183 646 q 156 631 156 646 l 156 540 l 156 540 q 171 525 156 525 q 185 540 185 525 m 185 13 l 185 103 l 185 103 q 171 118 183 118 q 156 103 156 118 l 156 13 l 156 13 q 171 -3 156 -3 q 185 13 185 -3 "},";":{"ha":349,"x_min":129,"x_max":222,"o":"m 213 540 l 213 631 l 213 631 q 199 646 213 646 q 183 631 183 646 l 183 540 l 183 540 q 199 525 183 525 q 213 540 213 525 m 218 101 q 207 119 222 117 q 190 108 194 124 l 131 -107 l 131 -107 q 129 -114 129 -111 q 140 -125 129 -122 q 160 -114 156 -129 l 218 101 l 218 101 "},"<":{"ha":743,"x_min":67,"x_max":664,"o":"m 664 68 l 664 96 l 93 333 l 664 571 l 664 599 l 67 350 l 67 318 l 664 68 "},"=":{"ha":875,"x_min":69,"x_max":806,"o":"m 806 408 l 806 435 l 69 435 l 69 408 l 806 408 m 806 232 l 806 258 l 69 258 l 69 232 l 806 232 "},">":{"ha":743,"x_min":67,"x_max":664,"o":"m 664 318 l 664 350 l 67 599 l 67 571 l 638 333 l 67 96 l 67 68 l 664 318 "},"?":{"ha":729,"x_min":56,"x_max":653,"o":"m 368 15 l 368 106 q 353 119 368 119 q 339 106 339 119 l 339 15 q 353 0 339 0 q 368 15 368 0 m 56 714 l 82 699 q 367 938 107 938 q 542 894 472 938 q 624 744 624 844 q 588 625 624 676 q 475 514 558 583 q 339 265 339 400 l 339 240 l 369 240 l 369 274 q 517 514 369 392 q 653 744 653 626 q 561 913 653 853 q 368 964 483 964 q 158 903 239 964 q 56 714 72 839 "},"@":{"ha":1167,"x_min":82,"x_max":1082,"o":"m 783 261 q 825 200 776 200 q 919 235 868 200 q 994 304 965 265 q 1082 556 1082 422 q 935 860 1082 746 q 606 965 801 965 q 238 833 386 965 q 82 479 82 696 q 242 119 82 258 q 617 -15 393 -15 q 872 47 744 -15 q 1067 219 1011 114 l 1032 219 q 847 64 975 122 q 610 10 731 10 q 261 135 401 10 q 115 472 115 265 q 260 814 115 682 q 611 940 399 940 q 915 840 790 940 q 1051 558 1051 733 q 976 332 1051 451 q 915 267 954 297 q 835 231 869 231 q 808 253 810 231 q 808 261 810 257 l 876 781 l 851 781 l 828 603 q 593 781 794 783 q 372 697 457 779 q 271 478 288 614 q 268 424 268 456 q 313 272 268 336 q 510 181 378 179 q 796 361 703 182 l 783 261 m 813 482 q 713 283 796 364 q 513 201 629 203 q 350 263 408 201 q 292 428 292 324 q 369 657 292 564 q 585 758 451 757 q 754 701 693 760 q 815 535 815 643 q 813 482 815 501 "},"A":{"ha":883,"x_min":7,"x_max":876,"o":"m 876 0 l 468 942 l 431 942 l 7 0 l 42 0 l 179 310 l 710 310 l 844 0 l 876 0 m 699 336 l 192 336 l 450 907 l 699 336 "},"B":{"ha":892,"x_min":68,"x_max":840,"o":"m 840 253 q 596 490 840 461 q 743 561 685 510 q 810 704 810 619 q 719 888 810 825 q 517 942 642 942 l 68 942 l 68 0 l 499 0 q 731 54 640 0 q 840 253 840 119 m 781 711 q 696 551 781 606 q 513 504 624 504 l 97 504 l 97 915 l 514 915 q 696 869 625 915 q 781 711 781 815 m 813 251 q 717 76 813 136 q 515 26 638 26 l 97 26 l 97 478 l 510 478 q 717 429 638 478 q 813 251 813 371 "},"C":{"ha":999,"x_min":71,"x_max":928,"o":"m 915 154 l 890 171 q 543 17 778 17 q 219 140 338 17 q 100 469 100 264 q 225 801 100 678 q 558 925 350 925 q 903 774 803 925 l 928 790 q 558 951 818 951 q 202 820 333 951 q 71 464 71 689 q 199 118 71 246 q 544 -10 326 -10 q 915 154 794 -10 "},"D":{"ha":944,"x_min":79,"x_max":885,"o":"m 885 469 q 775 815 885 694 q 438 942 661 942 l 79 942 l 79 0 l 385 0 q 747 118 615 0 q 885 469 885 240 m 856 469 q 729 138 856 253 q 389 26 608 26 l 108 26 l 108 915 l 436 915 q 754 796 647 915 q 856 469 856 683 "},"E":{"ha":783,"x_min":79,"x_max":761,"o":"m 761 0 l 761 26 l 107 26 l 107 479 l 681 479 l 681 504 l 107 504 l 107 915 l 754 915 l 754 942 l 79 942 l 79 0 l 761 0 "},"F":{"ha":701,"x_min":79,"x_max":704,"o":"m 704 915 l 704 942 l 79 942 l 79 0 l 107 0 l 107 479 l 618 479 l 618 504 l 107 504 l 107 915 l 704 915 "},"G":{"ha":1053,"x_min":47,"x_max":985,"o":"m 982 439 l 550 439 l 550 413 l 954 413 l 954 365 q 826 106 954 203 q 543 17 711 17 q 201 135 326 17 q 76 469 76 254 q 199 803 76 681 q 535 925 322 925 q 936 647 875 925 l 967 647 q 811 882 935 804 q 533 951 701 951 q 178 822 308 951 q 47 468 47 692 q 181 115 47 240 q 543 -10 314 -10 q 838 78 715 -10 q 985 382 985 183 q 982 439 985 410 "},"H":{"ha":944,"x_min":79,"x_max":865,"o":"m 865 0 l 865 942 l 836 942 l 836 504 l 108 504 l 108 942 l 79 942 l 79 0 l 108 0 l 108 479 l 836 479 l 836 0 l 865 0 "},"I":{"ha":186,"x_min":79,"x_max":108,"o":"m 108 0 l 108 942 l 79 942 l 79 0 l 108 0 "},"J":{"ha":675,"x_min":28,"x_max":589,"o":"m 589 264 l 589 942 l 560 942 l 560 272 q 501 75 560 133 q 304 17 443 17 q 57 201 72 17 l 28 201 q 310 -10 49 -10 q 589 264 589 -10 "},"K":{"ha":931,"x_min":79,"x_max":903,"o":"m 903 0 l 356 540 l 874 942 l 829 942 l 108 382 l 108 942 l 79 942 l 79 0 l 108 0 l 108 347 l 332 525 l 864 0 l 903 0 "},"L":{"ha":701,"x_min":79,"x_max":703,"o":"m 703 0 l 703 26 l 108 26 l 108 942 l 79 942 l 79 0 l 703 0 "},"M":{"ha":1138,"x_min":79,"x_max":1057,"o":"m 1057 0 l 1057 942 l 1011 942 l 568 32 l 126 942 l 79 942 l 79 0 l 108 0 l 108 914 l 553 0 l 585 0 l 1028 914 l 1028 0 l 1057 0 "},"N":{"ha":944,"x_min":79,"x_max":865,"o":"m 865 0 l 865 942 l 836 942 l 836 31 q 479 486 721 185 q 122 942 238 788 l 79 942 l 79 0 l 108 0 l 108 913 l 822 0 l 865 0 "},"O":{"ha":1051,"x_min":49,"x_max":1006,"o":"m 1006 471 q 878 815 1006 693 q 526 938 750 938 q 176 815 303 938 q 49 471 49 693 q 175 118 49 246 q 526 -10 301 -10 q 878 119 750 -10 q 1006 471 1006 247 m 976 471 q 857 138 976 260 q 526 17 738 17 q 198 139 318 17 q 78 471 78 261 q 197 796 78 681 q 526 911 317 911 q 857 796 738 911 q 976 471 976 681 "},"P":{"ha":863,"x_min":79,"x_max":818,"o":"m 818 682 q 496 942 818 942 l 79 942 l 79 0 l 108 0 l 108 429 l 481 429 q 710 485 619 429 q 818 682 818 551 m 788 681 q 699 510 788 571 q 506 456 621 456 l 108 456 l 108 915 l 504 915 q 788 681 788 915 "},"Q":{"ha":1051,"x_min":49,"x_max":1006,"o":"m 1006 471 q 878 815 1006 693 q 526 938 750 938 q 176 815 303 938 q 49 471 49 693 q 175 118 49 246 q 526 -10 301 -10 q 626 -1 579 -10 q 804 -92 690 -92 l 932 -92 l 932 -65 l 804 -65 q 654 4 708 -65 q 918 169 826 42 q 1006 471 1006 290 m 976 471 q 892 183 976 299 q 639 28 804 63 q 622 96 622 61 q 560 233 622 179 q 414 288 499 288 q 282 244 340 288 q 210 131 224 201 q 78 471 78 254 q 197 796 78 681 q 526 911 317 911 q 857 796 738 911 q 976 471 976 681 m 614 24 q 526 17 572 17 q 233 111 351 17 q 293 222 238 179 q 414 263 344 263 q 542 217 489 263 q 596 97 596 171 q 614 24 596 60 "},"R":{"ha":892,"x_min":79,"x_max":822,"o":"m 822 704 q 513 942 822 942 l 79 942 l 79 0 l 108 0 l 108 440 l 500 440 q 779 225 779 440 l 779 0 l 808 0 l 808 229 q 611 458 808 419 q 822 704 822 506 m 793 700 q 699 519 793 581 q 493 468 619 468 l 108 468 l 108 915 l 515 915 q 793 700 793 915 "},"S":{"ha":892,"x_min":50,"x_max":824,"o":"m 824 229 q 732 411 824 354 q 401 508 650 463 q 203 567 263 535 q 110 721 110 618 q 432 925 110 925 q 665 879 586 925 q 775 678 767 821 l 804 678 q 432 951 800 951 q 81 721 81 951 q 196 540 81 601 q 432 469 256 508 q 631 422 588 435 q 751 360 715 397 q 794 233 794 315 q 679 60 794 115 q 460 17 592 17 q 79 303 79 17 l 79 311 l 50 311 l 50 297 q 178 54 50 132 q 458 -10 282 -10 q 697 40 597 -10 q 824 229 824 104 "},"T":{"ha":757,"x_min":4,"x_max":753,"o":"m 753 915 l 753 942 l 4 942 l 4 915 l 364 915 l 364 0 l 393 0 l 393 915 l 753 915 "},"U":{"ha":922,"x_min":79,"x_max":842,"o":"m 842 347 l 842 942 l 813 942 l 813 346 q 461 17 813 17 q 108 351 108 17 l 108 942 l 79 942 l 79 350 q 176 72 79 160 q 461 -10 268 -10 q 747 74 651 -10 q 842 347 842 158 "},"V":{"ha":872,"x_min":18,"x_max":856,"o":"m 856 942 l 826 942 l 443 31 l 47 942 l 18 942 l 426 0 l 458 0 l 856 942 "},"W":{"ha":1347,"x_min":22,"x_max":1325,"o":"m 1325 942 l 1296 942 l 928 31 l 547 942 l 518 942 l 660 599 l 432 31 l 51 942 l 22 942 l 415 0 l 447 0 l 676 563 l 911 0 l 943 0 l 1325 942 "},"X":{"ha":839,"x_min":3,"x_max":838,"o":"m 838 0 l 443 485 l 822 942 l 785 942 l 422 506 l 63 942 l 24 942 l 403 485 l 3 0 l 39 0 l 422 463 l 801 0 l 838 0 "},"Y":{"ha":869,"x_min":0,"x_max":869,"o":"m 869 942 l 835 942 l 435 490 l 36 942 l 0 942 l 421 463 l 421 0 l 450 0 l 450 463 l 869 942 "},"Z":{"ha":869,"x_min":51,"x_max":819,"o":"m 819 0 l 819 26 l 81 26 l 808 907 l 808 942 l 92 942 l 92 915 l 779 915 l 51 36 l 51 0 l 819 0 "},"[":{"ha":324,"x_min":140,"x_max":304,"o":"m 304 -233 l 304 -207 l 169 -207 l 169 993 l 304 993 l 304 1019 l 140 1019 l 140 -233 l 304 -233 "},"\\":{"ha":486,"x_min":-11,"x_max":486,"o":"m 486 0 l 18 964 l -11 964 l 457 0 l 486 0 "},"]":{"ha":324,"x_min":19,"x_max":183,"o":"m 183 1019 l 19 1019 l 19 993 l 153 993 l 154 -140 l 153 -207 l 19 -207 l 19 -233 l 182 -233 l 183 1019 "},"^":{"ha":414,"x_min":85,"x_max":328,"o":"m 328 710 l 218 897 l 189 897 l 85 710 l 114 710 l 204 871 l 294 710 l 328 710 "},"_":{"ha":729,"x_min":0,"x_max":729,"o":"m 729 -165 l 729 -99 l 0 -99 l 0 -165 l 729 -165 "},"`":{"ha":268,"x_min":32,"x_max":235,"o":"m 225 757 l 68 928 q 46 931 56 940 q 44 910 32 922 l 201 740 q 224 738 214 731 q 225 757 235 746 "},"a":{"ha":783,"x_min":40,"x_max":694,"o":"m 693 138 l 693 690 l 664 690 l 664 522 q 367 693 597 693 q 136 622 225 693 q 40 407 40 546 q 135 196 40 272 q 361 125 222 125 q 664 294 583 125 l 664 138 l 693 138 m 664 407 q 571 213 664 286 q 360 146 485 146 q 153 213 232 146 q 68 407 68 283 q 154 603 68 531 q 360 672 235 672 q 575 608 494 672 q 664 407 664 538 m 694 -1 l 694 26 l 46 26 l 46 -1 l 694 -1 "},"b":{"ha":783,"x_min":81,"x_max":731,"o":"m 731 336 q 650 592 731 496 q 407 694 564 694 q 221 640 299 694 q 110 482 139 583 l 110 942 l 81 942 l 81 0 l 110 0 l 110 197 q 222 43 142 100 q 406 -14 303 -14 q 649 85 563 -14 q 731 336 731 178 m 703 338 q 631 108 703 196 q 414 13 553 13 q 193 103 276 13 q 110 333 110 194 q 183 574 110 486 q 413 668 263 668 q 632 571 554 668 q 703 338 703 483 "},"c":{"ha":729,"x_min":46,"x_max":679,"o":"m 679 196 l 651 208 q 553 60 633 113 q 379 11 481 11 q 156 97 238 11 q 75 326 75 183 q 157 571 75 479 q 393 668 243 668 q 644 489 600 668 l 671 503 q 568 647 647 596 q 396 694 496 694 q 138 594 231 694 q 46 326 46 493 q 135 78 46 171 q 381 -15 225 -15 q 569 36 492 -15 q 679 196 656 92 "},"d":{"ha":783,"x_min":40,"x_max":693,"o":"m 693 0 l 693 942 l 664 942 l 664 482 q 553 640 632 585 q 367 694 475 694 q 124 592 211 694 q 40 338 40 496 q 122 88 40 183 q 361 -15 210 -15 q 664 196 583 -15 l 664 0 l 693 0 m 664 338 q 582 107 664 199 q 360 11 497 11 q 142 107 221 11 q 68 338 68 196 q 143 569 68 478 q 360 668 222 668 q 588 575 507 668 q 664 338 664 488 "},"e":{"ha":729,"x_min":36,"x_max":699,"o":"m 699 406 l 699 429 q 596 632 699 561 q 368 693 507 693 q 136 622 228 693 q 36 407 36 544 q 129 192 36 264 q 361 125 213 125 q 674 286 614 125 l 643 286 q 525 178 611 214 q 364 146 453 146 q 64 404 68 146 l 699 406 m 663 425 l 64 425 q 161 611 71 546 q 368 672 243 672 q 572 613 493 672 q 663 425 663 546 m 694 -1 l 694 26 l 46 26 l 46 -1 l 694 -1 "},"f":{"ha":371,"x_min":42,"x_max":453,"o":"m 453 900 l 453 925 q 142 672 142 925 l 142 604 l 42 604 l 42 576 l 142 576 l 142 -1 l 171 -1 l 171 576 l 325 576 l 325 604 l 171 604 l 171 672 q 453 900 171 900 "},"g":{"ha":757,"x_min":42,"x_max":679,"o":"m 679 24 l 679 678 l 650 678 l 650 486 q 547 639 625 583 q 367 694 469 694 q 128 599 214 694 q 42 350 42 504 q 124 108 42 200 q 357 11 210 11 q 535 60 457 11 q 650 201 618 111 l 650 25 q 371 -222 650 -222 q 113 -35 128 -222 l 83 -35 q 176 -201 89 -146 q 369 -249 251 -249 q 679 24 679 -249 m 650 347 q 572 125 650 210 q 354 38 490 38 q 143 129 219 38 q 71 351 71 214 q 149 575 71 488 q 364 668 229 668 q 575 571 494 668 q 650 347 650 481 "},"h":{"ha":729,"x_min":81,"x_max":646,"o":"m 646 0 l 646 463 q 568 638 646 576 q 381 694 497 694 q 208 647 279 694 q 110 501 132 597 l 110 942 l 81 942 l 81 0 l 110 0 l 110 382 q 183 588 110 508 q 382 668 257 668 q 553 611 489 668 q 617 449 617 554 l 617 0 l 646 0 "},"i":{"ha":189,"x_min":76,"x_max":114,"o":"m 110 849 l 110 942 q 93 954 100 954 q 81 942 86 954 l 81 849 q 93 838 85 838 q 110 849 101 838 m 110 138 l 110 679 l 81 679 l 81 138 l 110 138 m 114 -1 l 114 26 l 76 26 l 76 -1 l 114 -1 "},"j":{"ha":189,"x_min":-206,"x_max":110,"o":"m 110 849 l 110 942 q 93 954 100 954 q 81 942 86 954 l 81 849 q 93 838 85 838 q 110 849 101 838 m 106 24 l 106 678 l 76 678 l 76 25 q -206 -224 76 -224 l -206 -249 q 106 24 106 -249 "},"k":{"ha":739,"x_min":81,"x_max":693,"o":"m 693 0 l 311 419 l 669 678 l 614 679 l 110 303 l 110 942 l 81 942 l 81 0 l 110 0 l 110 269 l 289 401 l 654 0 l 693 0 "},"l":{"ha":189,"x_min":81,"x_max":110,"o":"m 110 0 l 110 942 l 81 942 l 81 0 l 110 0 "},"m":{"ha":1135,"x_min":81,"x_max":1053,"o":"m 1053 0 l 1053 463 q 819 694 1053 694 q 578 531 631 694 q 501 651 560 608 q 361 694 443 694 q 197 644 267 694 q 110 501 128 593 l 110 678 l 81 678 l 81 0 l 110 0 l 110 382 q 168 579 110 500 q 347 668 233 668 q 553 449 553 668 l 553 0 l 582 0 l 582 429 q 648 603 582 538 q 822 668 714 668 q 1024 449 1024 668 l 1024 0 l 1053 0 "},"n":{"ha":729,"x_min":81,"x_max":646,"o":"m 646 0 l 646 463 q 568 638 646 576 q 381 694 497 694 q 208 647 279 694 q 110 501 132 597 l 110 678 l 81 678 l 81 0 l 110 0 l 110 382 q 183 588 110 508 q 382 668 257 668 q 553 611 489 668 q 617 449 617 554 l 617 0 l 646 0 "},"o":{"ha":757,"x_min":40,"x_max":718,"o":"m 718 408 q 615 624 718 547 q 381 693 524 693 q 144 624 238 693 q 40 408 40 547 q 143 194 40 271 q 378 125 235 125 q 614 193 521 125 q 718 408 718 269 m 689 408 q 594 211 689 282 q 379 146 510 146 q 164 211 249 146 q 69 408 69 282 q 163 607 69 536 q 379 672 247 672 q 596 608 513 672 q 689 408 689 538 m 708 -1 l 708 26 l 46 26 l 46 -1 l 708 -1 "},"p":{"ha":783,"x_min":81,"x_max":731,"o":"m 731 342 q 649 594 731 500 q 406 694 563 694 q 219 638 299 694 q 110 481 139 582 l 110 678 l 81 678 l 81 -233 l 110 -233 l 110 197 q 219 40 140 96 q 407 -15 299 -15 q 650 86 565 -15 q 731 342 731 181 m 703 340 q 631 108 703 197 q 413 11 553 11 q 183 104 261 11 q 110 344 110 190 q 192 577 110 486 q 414 668 274 668 q 631 571 553 668 q 703 340 703 482 "},"q":{"ha":783,"x_min":40,"x_max":692,"o":"m 692 -233 l 692 678 l 663 678 l 663 481 q 553 639 632 583 q 364 694 474 694 q 125 592 214 694 q 40 342 40 494 q 122 92 40 190 q 358 -15 210 -15 q 663 194 600 -15 l 663 -233 l 692 -233 m 664 340 q 588 103 664 189 q 358 11 507 11 q 143 110 222 11 q 69 340 69 200 q 142 571 69 482 q 357 668 219 668 q 583 574 500 668 q 664 340 664 485 "},"r":{"ha":442,"x_min":81,"x_max":406,"o":"m 406 668 l 406 694 q 197 621 282 694 q 110 422 107 544 l 110 678 l 81 678 l 81 0 l 110 0 l 110 268 q 174 539 110 433 q 406 668 251 668 "},"s":{"ha":675,"x_min":57,"x_max":604,"o":"m 604 169 q 418 344 604 311 q 271 372 307 365 q 118 507 118 401 q 188 629 118 586 q 329 667 246 667 q 567 476 567 667 l 600 476 q 322 696 600 696 q 161 650 226 696 q 86 507 86 599 q 276 336 86 367 q 418 313 407 315 q 572 169 572 275 q 497 44 572 86 q 347 11 438 11 q 89 233 89 11 l 57 233 q 346 -18 57 -18 q 521 21 454 -18 q 604 169 604 69 "},"t":{"ha":365,"x_min":29,"x_max":336,"o":"m 336 613 l 336 639 l 196 639 l 196 853 l 167 853 l 167 639 l 29 639 l 29 613 l 167 613 l 169 0 l 196 0 l 196 613 l 336 613 "},"u":{"ha":729,"x_min":75,"x_max":654,"o":"m 646 136 l 646 678 l 617 678 l 617 383 q 540 203 617 265 q 347 144 469 144 q 185 182 247 144 q 110 322 110 228 l 110 678 l 81 678 l 81 321 q 165 165 81 217 q 347 124 235 124 q 508 157 439 124 q 617 274 590 196 l 617 136 l 646 136 m 654 -1 l 654 26 l 75 26 l 75 -1 l 654 -1 "},"v":{"ha":654,"x_min":13,"x_max":643,"o":"m 643 678 l 611 678 l 340 22 l 49 678 l 13 678 l 322 0 l 358 0 l 643 678 "},"w":{"ha":1071,"x_min":39,"x_max":1033,"o":"m 1033 678 l 1001 678 l 744 22 l 468 678 l 432 678 l 525 467 l 351 22 l 74 678 l 39 678 l 333 0 l 369 0 l 542 428 l 726 0 l 764 0 l 1033 678 "},"x":{"ha":649,"x_min":6,"x_max":643,"o":"m 643 0 l 343 351 l 617 678 l 582 678 l 324 371 l 71 678 l 33 678 l 307 351 l 6 0 l 42 0 l 324 331 l 607 0 l 643 0 "},"y":{"ha":729,"x_min":50,"x_max":646,"o":"m 646 24 l 646 678 l 617 678 l 617 310 q 551 96 617 174 q 347 11 481 11 q 174 68 238 11 q 110 233 110 125 l 110 678 l 81 678 l 81 232 q 153 48 81 111 q 347 -15 225 -15 q 519 33 446 -15 q 617 172 592 81 l 617 25 q 338 -222 617 -222 q 79 -35 94 -222 l 50 -35 q 143 -201 56 -146 q 335 -249 217 -249 q 646 24 646 -249 "},"z":{"ha":657,"x_min":39,"x_max":618,"o":"m 618 0 l 618 26 l 69 26 l 594 646 l 594 678 l 79 678 l 79 651 l 564 651 l 39 33 l 39 0 l 618 0 "},"{":{"ha":486,"x_min":124,"x_max":353,"o":"m 353 -233 l 353 -207 l 339 -207 q 267 -157 283 -207 q 258 -65 258 -132 l 258 219 q 232 344 258 310 q 154 393 217 365 q 232 443 215 421 q 258 567 258 479 l 258 853 q 267 943 258 918 q 339 993 283 993 l 353 993 l 353 1019 l 338 1019 q 229 888 229 1019 l 229 569 q 203 451 229 483 q 124 406 186 432 l 124 382 q 203 335 186 354 q 229 217 229 303 l 229 -101 q 338 -233 229 -233 l 353 -233 "},"|":{"ha":324,"x_min":147,"x_max":176,"o":"m 176 -44 l 176 981 l 147 981 l 147 -44 l 176 -44 "},"}":{"ha":486,"x_min":124,"x_max":353,"o":"m 124 -233 l 124 -207 l 138 -207 q 210 -157 193 -207 q 218 -65 218 -132 l 218 219 q 244 344 218 310 q 322 393 260 365 q 244 443 261 421 q 218 567 218 479 l 218 853 q 210 943 218 918 q 138 993 193 993 l 124 993 l 124 1019 l 139 1019 q 247 888 247 1019 l 247 569 q 274 451 247 483 q 353 406 290 432 l 353 382 q 274 335 290 354 q 247 217 247 303 l 247 -101 q 139 -233 247 -233 l 124 -233 "},"~":{"ha":761,"x_min":79,"x_max":683,"o":"m 631 529 q 683 633 675 571 l 639 633 q 604 557 632 586 q 528 524 574 524 q 383 577 493 524 q 236 631 274 631 q 132 588 176 631 q 79 486 88 546 l 124 486 q 233 593 140 593 q 377 540 267 593 q 528 488 488 488 q 576 493 563 488 q 631 529 600 500 "},"‚":{"ha":406,"x_min":133,"x_max":226,"o":"m 222 101 q 211 119 226 117 q 194 108 199 124 l 135 -107 l 135 -107 q 133 -114 133 -111 q 144 -125 133 -122 q 164 -114 160 -129 l 222 101 l 222 101 "},"ƒ":{"ha":811,"x_min":-39,"x_max":822,"o":"m -39 -233 q 329 19 269 -233 l 460 576 l 613 576 l 619 604 l 467 604 l 483 672 q 817 900 539 900 l 822 925 q 454 672 517 925 q 438 604 440 618 l 338 604 l 329 576 l 431 576 l 294 -1 l 294 -1 q -33 -208 232 -208 l -39 -233 "},"„":{"ha":488,"x_min":133,"x_max":372,"o":"m 222 101 q 211 119 226 117 q 194 108 199 124 l 135 -107 l 135 -107 q 133 -114 133 -111 q 144 -125 133 -122 q 164 -114 160 -129 l 222 101 l 222 101 m 368 101 q 357 119 372 117 q 340 108 344 124 l 281 -107 l 281 -107 q 279 -114 279 -111 q 290 -125 279 -122 q 310 -114 306 -129 l 368 101 l 368 101 "},"…":{"ha":886,"x_min":188,"x_max":742,"o":"m 217 13 l 217 103 q 203 118 217 118 q 188 103 188 118 l 188 13 q 203 -3 188 -3 q 217 13 217 -3 m 479 13 l 479 103 q 465 118 479 118 q 450 103 450 118 l 450 13 q 465 -3 450 -3 q 479 13 479 -3 m 742 13 l 742 103 q 728 118 742 118 q 713 103 713 118 l 713 13 q 728 -3 713 -3 q 742 13 742 -3 "},"†":{"ha":479,"x_min":51,"x_max":407,"o":"m 407 656 l 407 683 l 243 683 l 243 863 l 214 863 l 214 683 l 51 683 l 51 656 l 214 656 l 214 -79 l 243 -79 l 243 656 l 407 656 "},"‡":{"ha":468,"x_min":57,"x_max":413,"o":"m 413 63 l 413 90 l 250 90 l 250 656 l 413 656 l 413 683 l 250 683 l 250 863 l 221 863 l 221 683 l 57 683 l 57 656 l 221 656 l 221 90 l 57 90 l 57 63 l 221 63 l 221 -79 l 250 -79 l 250 63 l 413 63 "},"ˆ":{"ha":360,"x_min":29,"x_max":331,"o":"m 331 750 l 192 936 l 163 936 l 29 750 l 58 750 l 178 910 l 297 750 l 331 750 "},"‰":{"ha":1406,"x_min":54,"x_max":1363,"o":"m 1363 214 q 1176 461 1363 461 q 990 214 990 461 q 1175 -26 990 -26 q 1363 214 1363 -26 m 856 942 l 822 942 l 160 0 l 194 0 l 856 942 m 939 214 q 754 461 939 461 q 567 214 567 461 q 753 -26 567 -26 q 939 214 939 -26 m 426 667 q 240 913 426 913 q 54 667 54 913 q 239 428 54 428 q 426 667 426 428 m 1332 214 q 1176 0 1332 0 q 1021 214 1021 0 q 1175 435 1021 435 q 1332 214 1332 435 m 908 214 q 754 0 908 0 q 597 214 597 0 q 753 435 597 435 q 908 214 908 435 m 396 667 q 240 453 396 453 q 85 667 85 453 q 239 886 85 886 q 396 667 396 886 "},"Š":{"ha":892,"x_min":50,"x_max":824,"o":"m 824 229 q 732 411 824 354 q 401 508 650 463 q 203 567 263 535 q 110 721 110 618 q 432 925 110 925 q 665 879 586 925 q 775 678 767 821 l 804 678 q 432 951 800 951 q 81 721 81 951 q 196 540 81 603 q 310 499 236 518 q 432 469 347 489 q 631 422 594 433 q 751 360 714 397 q 794 233 794 315 q 679 60 794 115 q 460 17 592 17 q 79 303 79 17 l 79 311 l 50 311 l 50 297 q 178 54 50 132 q 458 -10 282 -10 q 697 40 597 -10 q 824 229 824 104 m 593 1214 l 560 1214 l 440 1053 l 321 1214 l 292 1214 l 426 1026 l 456 1026 l 593 1214 "},"‹":{"ha":408,"x_min":99,"x_max":306,"o":"m 306 544 l 99 393 l 99 367 l 306 219 l 306 246 l 128 381 l 306 514 l 306 544 "},"Œ":{"ha":1403,"x_min":53,"x_max":1350,"o":"m 1350 0 l 1350 26 l 739 26 q 879 119 819 60 q 1011 468 1011 251 l 1011 479 l 1299 479 l 1299 504 l 1010 504 q 879 817 1001 696 q 726 915 813 882 l 1342 915 l 1342 942 l 622 942 q 532 949 578 949 q 181 820 308 949 q 53 468 53 692 q 182 118 53 247 q 532 -11 311 -11 q 653 0 596 -11 l 1350 0 m 981 504 l 681 504 l 681 903 q 860 799 786 874 q 981 504 972 685 m 982 468 q 860 140 982 264 q 681 35 786 65 l 681 479 l 982 479 l 982 468 m 653 28 q 532 14 596 14 q 202 136 322 14 q 82 468 82 258 q 202 800 82 678 q 532 922 322 922 q 653 910 596 922 l 653 28 "},"‘":{"ha":243,"x_min":78,"x_max":174,"o":"m 169 922 q 158 940 174 938 q 140 929 144 943 l 82 714 q 92 696 78 699 q 110 707 106 692 l 169 922 "},"’":{"ha":243,"x_min":78,"x_max":174,"o":"m 169 922 q 158 940 174 938 q 142 929 146 944 l 82 714 q 92 696 78 699 q 111 707 107 693 l 169 922 "},"“":{"ha":371,"x_min":78,"x_max":319,"o":"m 315 922 q 304 940 319 938 q 286 929 290 943 l 228 714 q 238 696 224 699 q 256 707 251 692 l 315 922 m 169 922 q 158 940 174 938 q 140 929 144 943 l 82 714 q 92 696 78 699 q 110 707 106 692 l 169 922 "},"”":{"ha":383,"x_min":78,"x_max":319,"o":"m 315 922 q 304 940 319 938 q 288 929 292 944 l 228 714 q 238 696 224 699 q 257 707 253 693 l 315 922 m 169 922 q 158 940 174 938 q 142 929 146 944 l 82 714 q 92 696 78 699 q 111 707 107 693 l 169 922 "},"•":{"ha":406,"x_min":76,"x_max":260,"o":"m 260 363 l 260 540 q 168 556 260 556 q 76 540 76 556 l 76 363 q 168 347 76 347 q 260 363 260 347 "},"–":{"ha":688,"x_min":0,"x_max":685,"o":"m 685 353 l 685 381 l 0 381 l 0 353 l 685 353 "},"—":{"ha":1242,"x_min":0,"x_max":1239,"o":"m 1239 353 l 1239 381 l 0 381 l 0 353 l 1239 353 "},"˜":{"ha":508,"x_min":65,"x_max":443,"o":"m 443 857 l 419 871 q 397 817 418 842 q 347 793 376 793 q 256 831 329 793 q 161 869 183 869 q 97 842 129 869 q 65 782 65 814 l 90 765 q 112 819 92 794 q 160 843 132 843 q 252 805 179 843 q 347 767 325 767 q 411 794 383 767 q 443 857 439 821 "},"™":{"ha":1096,"x_min":74,"x_max":1024,"o":"m 510 921 l 738 482 l 769 482 l 988 914 l 988 482 l 1024 482 l 1024 950 l 972 950 l 753 524 l 531 950 l 74 950 l 74 921 l 279 921 l 279 482 l 314 482 l 314 921 l 478 921 l 478 482 l 513 482 q 510 921 511 871 "},"š":{"ha":675,"x_min":57,"x_max":604,"o":"m 604 169 q 418 344 604 310 q 271 372 328 361 q 118 507 118 401 q 188 629 118 586 q 329 667 246 667 q 567 476 567 667 l 600 476 q 322 696 600 696 q 161 650 226 696 q 86 507 86 599 q 276 336 86 367 q 418 313 407 315 q 572 169 572 275 q 497 44 572 86 q 347 11 438 11 q 89 233 89 11 l 57 233 q 346 -18 57 -18 q 521 21 454 -18 q 604 169 604 69 m 486 950 l 451 950 l 332 789 l 213 950 l 183 950 l 318 763 l 347 763 l 486 950 "},"›":{"ha":408,"x_min":99,"x_max":306,"o":"m 99 544 l 306 393 l 306 367 l 99 219 l 99 246 l 276 381 l 99 514 l 99 544 "},"œ":{"ha":1401,"x_min":40,"x_max":1351,"o":"m 689 408 q 594 211 689 282 q 379 146 510 146 q 164 211 249 146 q 69 408 69 282 q 163 607 69 536 q 379 672 247 672 q 596 608 513 672 q 689 408 689 538 m 1351 406 l 1351 429 q 1249 632 1351 561 q 1021 693 1160 693 q 778 613 867 693 q 704 501 725 565 q 576 650 671 600 q 381 693 493 693 q 144 624 238 693 q 40 408 40 547 q 143 194 40 271 q 378 125 235 125 q 626 204 535 125 q 701 311 679 249 q 1014 125 757 125 q 1326 286 1267 125 l 1296 286 q 1178 178 1264 214 q 1017 146 1106 146 q 717 386 731 146 q 718 404 718 394 l 1351 406 m 1315 425 l 718 425 l 717 432 q 817 614 728 550 q 1021 672 899 672 q 1225 613 1146 672 q 1315 425 1315 546 m 1347 -1 l 1347 26 l 46 26 l 46 -1 l 1347 -1 "},"Ÿ":{"ha":921,"x_min":25,"x_max":896,"o":"m 896 942 l 861 942 l 461 490 l 63 942 l 25 942 l 447 463 l 447 0 l 476 0 l 476 463 l 896 942 m 563 1040 l 563 1117 l 563 1117 q 547 1131 561 1131 q 533 1117 533 1131 l 533 1040 l 533 1040 q 547 1024 533 1024 q 563 1040 563 1024 m 401 1040 l 401 1117 l 401 1117 q 388 1131 400 1131 q 372 1117 372 1131 l 372 1040 l 372 1040 q 388 1024 372 1024 q 401 1040 401 1024 "}," ":{"ha":729,"x_min":0,"x_max":0,"o":""},"¡":{"ha":269,"x_min":119,"x_max":150,"o":"m 119 569 l 119 -132 l 149 -132 l 149 569 l 119 569 m 121 794 l 121 704 q 136 690 121 690 q 150 704 150 690 l 150 794 q 136 810 150 810 q 121 794 121 810 "},"¢":{"ha":729,"x_min":46,"x_max":679,"o":"m 203 60 q 75 326 75 146 q 157 571 75 479 q 393 668 243 668 q 489 654 444 668 l 203 60 m 571 765 l 542 765 l 500 679 q 396 694 451 694 q 138 594 231 694 q 46 326 46 493 q 192 35 46 128 l 150 -50 l 179 -50 l 214 21 q 381 -15 286 -15 q 569 36 492 -15 q 679 196 656 92 l 651 208 q 553 60 633 113 q 379 11 481 11 q 226 46 292 11 l 514 646 q 644 489 615 601 l 671 503 q 525 671 639 622 l 571 765 "},"£":{"ha":811,"x_min":51,"x_max":739,"o":"m 553 351 l 557 378 l 183 378 l 183 528 l 586 528 l 592 554 l 183 554 l 183 576 q 266 814 183 722 q 493 906 349 906 q 718 814 632 906 l 739 833 q 494 932 646 932 q 246 833 338 932 q 154 576 154 735 l 154 554 l 90 554 l 85 528 l 154 528 l 154 378 l 56 378 l 51 351 l 154 351 l 154 338 q 246 81 154 179 q 494 -17 338 -17 q 739 82 646 -17 l 718 100 q 493 10 632 10 q 267 101 350 10 q 183 338 183 193 l 183 351 l 553 351 "},"¤":{"ha":811,"x_min":94,"x_max":688,"o":"m 688 289 l 549 414 q 600 539 600 467 q 546 663 600 610 l 688 790 l 668 807 l 526 679 q 390 725 469 725 q 256 679 314 725 l 114 807 l 94 790 l 236 663 q 183 538 183 610 q 235 415 183 467 l 94 289 l 114 272 l 254 399 q 392 350 313 350 q 529 397 471 350 l 668 272 l 688 289 m 574 538 q 519 420 574 465 q 392 375 465 375 q 267 419 318 375 q 211 539 211 467 q 267 657 211 611 q 392 700 318 700 q 520 656 467 700 q 574 538 574 611 "},"¥":{"ha":896,"x_min":14,"x_max":883,"o":"m 758 179 l 758 206 l 464 206 l 464 356 l 758 356 l 758 382 l 464 382 l 464 463 l 883 942 l 849 942 l 449 490 l 50 942 l 14 942 l 435 463 l 435 382 l 140 382 l 140 356 l 435 356 l 435 206 l 140 206 l 140 179 l 435 179 l 435 0 l 464 0 l 464 179 l 758 179 "},"¦":{"ha":324,"x_min":147,"x_max":176,"o":"m 176 528 l 176 967 l 147 967 l 147 528 l 176 528 m 176 -32 l 176 407 l 147 407 l 147 -32 l 176 -32 "},"§":{"ha":811,"x_min":132,"x_max":674,"o":"m 674 379 q 572 526 674 482 q 456 558 528 551 q 274 601 304 589 q 188 717 188 636 q 257 840 188 797 q 401 878 317 878 q 640 688 640 878 l 669 688 q 393 904 669 904 q 233 858 299 904 q 158 717 158 807 q 324 556 158 594 q 138 389 149 531 q 178 278 132 328 q 281 213 218 232 l 494 168 q 621 38 621 142 q 553 -87 621 -44 q 408 -124 496 -124 q 169 65 169 -124 l 140 65 q 415 -150 140 -150 q 575 -104 510 -150 q 650 38 650 -53 q 486 197 650 158 q 674 379 674 225 m 644 379 q 569 253 644 294 q 418 219 510 219 q 254 260 324 219 q 169 394 169 307 q 171 418 169 407 q 390 535 207 535 q 644 379 610 535 "},"¨":{"ha":297,"x_min":54,"x_max":244,"o":"m 244 776 l 244 853 q 229 867 244 867 q 215 853 215 867 l 215 776 q 229 760 215 760 q 244 776 244 760 m 83 776 l 83 853 q 69 867 83 867 q 54 853 54 867 l 54 776 q 69 760 54 760 q 83 776 83 760 "},"©":{"ha":778,"x_min":60,"x_max":729,"o":"m 729 631 q 626 851 729 765 q 393 933 531 933 q 161 850 257 933 q 60 629 60 764 q 161 407 60 492 q 396 328 256 328 q 628 410 533 328 q 729 631 729 496 m 697 629 q 604 429 697 507 q 393 356 518 356 q 183 431 269 356 q 92 631 92 508 q 185 831 92 753 q 396 904 271 904 q 606 829 519 904 q 697 629 697 751 m 574 572 l 539 572 q 407 464 507 464 q 284 508 332 464 q 236 626 236 551 q 282 740 236 699 q 400 782 328 782 q 539 679 518 782 l 572 679 q 401 811 551 811 q 259 762 314 811 q 204 626 204 713 q 260 486 204 538 q 407 435 317 435 q 574 572 533 435 "},"ª":{"ha":525,"x_min":60,"x_max":465,"o":"m 465 485 l 465 913 l 433 913 l 433 817 q 263 914 383 914 q 113 853 167 914 q 60 694 60 792 q 111 539 60 599 q 260 475 165 475 q 433 575 381 475 l 433 485 l 465 485 m 433 694 q 386 559 433 614 q 260 504 339 504 q 133 560 178 504 q 92 694 92 611 q 135 831 92 776 q 260 885 179 885 q 389 833 344 885 q 433 694 433 781 "},"«":{"ha":543,"x_min":99,"x_max":467,"o":"m 306 544 l 99 393 l 99 367 l 306 219 l 306 246 l 128 381 l 306 514 l 306 544 m 467 544 l 260 393 l 260 367 l 467 219 l 467 246 l 289 381 l 467 514 l 467 544 "},"¬":{"ha":836,"x_min":68,"x_max":750,"o":"m 750 186 l 750 419 l 68 419 l 68 393 l 721 393 l 721 186 l 750 186 "},"­":{"ha":822,"x_min":69,"x_max":732,"o":"m 732 321 l 732 347 l 69 347 l 69 321 l 732 321 "},"®":{"ha":754,"x_min":46,"x_max":714,"o":"m 714 631 q 613 851 714 765 q 379 933 517 933 q 147 850 243 933 q 46 629 46 764 q 147 408 46 493 q 381 328 242 328 q 614 408 521 328 q 714 631 714 493 m 682 629 q 590 429 682 507 q 379 356 504 356 q 168 429 253 356 q 78 631 78 506 q 169 831 78 753 q 381 904 256 904 q 592 831 507 904 q 682 629 682 754 m 533 710 q 417 806 533 806 l 258 806 l 258 447 l 290 447 l 290 606 l 413 606 q 496 539 496 606 l 496 447 l 529 447 l 529 540 q 483 621 529 599 q 533 710 533 646 m 501 708 q 410 636 501 636 l 290 636 l 290 775 l 417 775 q 501 708 501 775 "},"¯":{"ha":435,"x_min":49,"x_max":388,"o":"m 388 829 l 388 856 l 49 856 l 49 829 l 388 829 "},"°":{"ha":583,"x_min":83,"x_max":499,"o":"m 499 724 q 437 858 499 807 q 290 910 375 910 q 147 858 207 910 q 83 722 83 804 q 146 588 83 640 q 292 535 208 535 q 437 588 375 535 q 499 724 499 642 m 472 722 q 419 605 472 650 q 292 560 365 560 q 167 604 218 560 q 111 724 111 651 q 167 842 111 796 q 292 885 218 885 q 419 840 367 885 q 472 722 472 796 "},"±":{"ha":875,"x_min":157,"x_max":719,"o":"m 718 336 l 718 363 l 451 363 l 451 601 l 422 601 l 422 363 l 157 363 l 157 336 l 422 336 l 422 93 l 451 93 l 451 336 l 718 336 m 719 -4 l 719 24 l 158 24 l 158 -4 l 719 -4 "},"²":{"ha":544,"x_min":50,"x_max":494,"o":"m 494 356 l 494 383 l 85 383 q 251 590 90 497 l 372 660 q 467 778 467 714 q 269 919 467 919 q 60 719 60 919 l 93 719 q 275 890 93 890 q 435 781 435 890 q 358 688 435 731 l 242 621 q 50 356 50 511 l 494 356 "},"³":{"ha":592,"x_min":63,"x_max":529,"o":"m 529 513 q 408 656 529 626 q 518 782 518 682 q 446 892 518 856 q 308 919 390 919 q 82 729 82 919 l 115 729 q 310 890 115 890 q 422 868 375 890 q 485 782 485 839 q 317 671 485 671 l 265 671 l 265 642 l 315 642 q 496 513 496 642 q 428 407 496 442 q 297 379 375 379 q 163 413 217 379 q 97 526 97 451 l 97 554 l 63 554 l 63 539 q 138 392 63 442 q 303 350 200 350 q 454 386 392 350 q 529 513 529 429 "},"´":{"ha":294,"x_min":46,"x_max":249,"o":"m 238 910 q 238 931 249 922 q 214 928 225 940 l 57 757 q 58 738 46 746 q 81 740 71 729 l 238 910 "},"µ":{"ha":729,"x_min":81,"x_max":646,"o":"m 617 -126 l 617 -96 q 504 -26 504 -96 q 533 19 504 4 q 646 232 646 81 l 646 678 l 617 678 l 617 233 q 553 68 617 125 q 379 11 489 11 q 175 96 246 11 q 110 310 110 174 l 110 678 l 81 678 l 81 -237 l 110 -237 l 110 172 q 210 31 135 79 q 379 -15 279 -15 q 471 -6 429 -15 q 467 -31 467 -18 q 521 -104 467 -78 q 617 -126 565 -126 "},"¶":{"ha":689,"x_min":86,"x_max":603,"o":"m 603 -185 l 603 942 l 432 942 q 424 943 428 943 q 190 864 286 943 q 86 646 86 779 q 189 424 86 508 q 425 350 286 342 l 425 -185 l 454 -185 l 454 915 l 574 915 l 574 -185 l 603 -185 "},"·":{"ha":290,"x_min":150,"x_max":179,"o":"m 179 406 l 179 494 q 165 510 179 510 q 150 494 150 510 l 150 406 q 165 389 150 389 q 179 406 179 389 "},"¸":{"ha":360,"x_min":46,"x_max":314,"o":"m 314 -150 q 200 -62 314 -62 q 178 -64 183 -62 l 181 13 l 151 13 l 142 -83 l 142 -90 q 196 -89 153 -85 q 279 -144 279 -96 q 167 -215 279 -215 q 58 -194 121 -215 l 46 -219 q 171 -242 119 -242 q 314 -150 314 -242 "},"¹":{"ha":399,"x_min":46,"x_max":290,"o":"m 290 361 l 290 907 l 260 907 l 46 764 l 101 764 l 254 863 l 254 361 l 290 361 "},"º":{"ha":574,"x_min":64,"x_max":511,"o":"m 285 486 q 448 543 385 486 q 511 699 511 600 q 449 853 511 796 q 289 911 388 911 q 126 854 189 911 q 64 699 64 797 q 125 543 64 600 q 285 486 186 486 m 286 889 q 430 838 375 889 q 485 699 485 786 q 430 560 485 611 q 286 508 375 508 q 144 560 199 508 q 90 699 90 611 q 145 837 90 785 q 286 889 200 889 "},"»":{"ha":529,"x_min":99,"x_max":467,"o":"m 260 544 l 467 393 l 467 367 l 260 219 l 260 246 l 438 381 l 260 514 l 260 544 m 99 544 l 306 393 l 306 367 l 99 219 l 99 246 l 276 381 l 99 514 l 99 544 "},"¼":{"ha":1133,"x_min":85,"x_max":1050,"o":"m 1050 190 l 1050 213 l 922 213 l 922 551 l 894 553 l 894 213 l 572 213 l 769 553 l 740 553 l 529 190 l 894 190 l 894 0 l 922 0 l 922 190 l 1050 190 m 771 964 l 742 964 l 279 0 l 308 0 l 771 964 m 315 365 l 315 904 l 288 904 l 85 768 l 129 768 l 286 869 l 286 365 l 315 365 "},"½":{"ha":1115,"x_min":69,"x_max":1046,"o":"m 1046 0 l 1046 22 l 638 22 q 808 236 640 135 q 933 310 876 278 q 1018 419 1018 358 q 825 558 1018 558 q 619 364 621 558 l 646 364 q 831 536 647 536 q 993 422 993 536 q 911 324 993 379 l 788 253 q 608 0 611 153 l 1046 0 m 757 964 l 728 964 l 264 0 l 293 0 l 757 964 m 300 365 l 300 904 l 272 904 l 69 768 l 115 768 l 271 869 l 271 365 l 300 365 "},"¾":{"ha":1258,"x_min":82,"x_max":1176,"o":"m 1176 190 l 1176 213 l 1049 213 l 1049 551 l 1021 553 l 1021 213 l 699 213 l 897 553 l 868 553 l 656 190 l 1021 190 l 1021 0 l 1049 0 l 1049 190 l 1176 190 m 899 964 l 869 964 l 406 0 l 435 0 l 899 964 m 543 513 q 410 656 543 624 q 531 782 531 685 q 460 890 531 856 q 324 917 406 917 q 101 733 104 917 l 128 733 q 325 894 129 894 q 442 872 394 894 q 504 782 504 843 q 332 668 504 668 l 285 668 l 285 646 l 331 646 q 517 513 517 646 q 447 406 517 442 q 314 376 392 376 q 176 410 232 376 q 108 526 108 450 l 108 551 l 82 551 l 82 539 q 318 354 82 354 q 467 389 406 354 q 543 513 543 432 "},"¿":{"ha":729,"x_min":56,"x_max":653,"o":"m 342 817 l 342 726 q 356 713 342 713 q 371 726 371 713 l 371 817 q 356 832 371 832 q 342 817 342 832 m 653 118 l 626 135 q 343 -106 603 -106 q 168 -62 238 -106 q 85 89 85 -11 q 121 207 85 156 q 233 318 150 249 q 371 567 371 433 l 371 593 l 340 593 l 340 560 q 193 319 340 440 q 56 89 56 207 q 147 -81 56 -21 q 342 -132 225 -132 q 550 -71 469 -132 q 653 118 636 -6 "},"À":{"ha":939,"x_min":35,"x_max":904,"o":"m 904 0 l 496 942 l 458 942 l 35 0 l 69 0 l 207 310 l 738 310 l 872 0 l 904 0 m 726 336 l 219 336 l 478 907 l 726 336 m 563 1015 l 404 1186 q 383 1189 393 1199 q 382 1169 371 1181 l 539 999 q 561 996 550 989 q 563 1015 574 1004 "},"Á":{"ha":939,"x_min":35,"x_max":904,"o":"m 904 0 l 496 942 l 458 942 l 35 0 l 69 0 l 207 310 l 738 310 l 872 0 l 904 0 m 726 336 l 219 336 l 478 907 l 726 336 m 563 1172 q 563 1192 572 1183 q 540 1189 551 1201 l 382 1018 q 383 999 372 1007 q 406 1001 396 990 l 563 1172 "},"Â":{"ha":939,"x_min":35,"x_max":904,"o":"m 904 0 l 496 942 l 458 942 l 35 0 l 69 0 l 207 310 l 738 310 l 872 0 l 904 0 m 726 336 l 219 336 l 478 907 l 726 336 m 624 989 l 486 1176 l 457 1176 l 322 989 l 351 989 l 471 1150 l 590 989 l 624 989 "},"Ã":{"ha":939,"x_min":35,"x_max":904,"o":"m 904 0 l 496 942 l 458 942 l 35 0 l 69 0 l 207 310 l 738 310 l 872 0 l 904 0 m 726 336 l 219 336 l 478 907 l 726 336 m 671 1100 l 647 1114 q 625 1060 646 1085 q 576 1036 604 1036 q 484 1074 557 1036 q 390 1113 411 1113 q 324 1087 354 1113 q 293 1025 293 1061 l 318 1008 q 340 1062 319 1038 q 388 1086 360 1086 q 480 1048 407 1086 q 576 1010 553 1010 q 640 1037 613 1010 q 671 1100 668 1064 "},"Ä":{"ha":939,"x_min":35,"x_max":904,"o":"m 904 0 l 496 942 l 458 942 l 35 0 l 69 0 l 207 310 l 738 310 l 872 0 l 904 0 m 726 336 l 219 336 l 478 907 l 726 336 m 568 1018 l 568 1094 q 553 1110 568 1110 q 539 1094 539 1110 l 539 1018 q 553 1003 539 1003 q 568 1018 568 1003 m 407 1018 l 407 1094 q 393 1110 407 1110 q 378 1094 378 1110 l 378 1018 q 393 1003 378 1003 q 407 1018 407 1003 "},"Å":{"ha":939,"x_min":35,"x_max":904,"o":"m 904 0 l 496 942 l 458 942 l 35 0 l 69 0 l 207 310 l 738 310 l 872 0 l 904 0 m 726 336 l 219 336 l 478 907 l 726 336 m 471 1010 q 548 1038 517 1010 q 579 1111 579 1067 q 548 1184 579 1156 q 471 1213 517 1213 q 394 1184 426 1213 q 363 1111 363 1156 q 394 1038 363 1067 q 471 1010 426 1010 m 471 1183 q 526 1163 504 1183 q 549 1111 549 1143 q 526 1059 549 1079 q 471 1039 504 1039 q 417 1059 439 1039 q 394 1111 394 1079 q 417 1163 394 1143 q 471 1183 439 1183 "},"Æ":{"ha":1496,"x_min":-18,"x_max":1432,"o":"m 850 506 m 819 506 l 461 506 l 822 911 l 819 506 m 819 0 l 1432 0 l 1432 26 l 851 26 l 850 479 l 1351 479 l 1351 504 l 914 504 l 914 506 l 850 506 l 850 915 l 1425 915 l 1425 942 l 811 942 l -18 0 l 17 0 l 438 479 l 819 479 l 819 0 "},"Ç":{"ha":999,"x_min":71,"x_max":928,"o":"m 663 -150 q 549 -62 663 -62 q 526 -64 532 -62 l 529 13 l 500 13 l 490 -83 l 490 -90 q 544 -89 501 -85 q 626 -144 626 -96 q 515 -215 626 -215 q 407 -194 469 -215 l 393 -219 q 519 -242 468 -242 q 663 -150 663 -242 m 915 154 l 890 171 q 543 17 778 17 q 219 140 338 17 q 100 469 100 264 q 225 801 100 678 q 558 925 350 925 q 903 774 803 925 l 928 790 q 558 951 818 951 q 202 820 333 951 q 71 464 71 689 q 199 118 71 246 q 544 -10 326 -10 q 915 154 794 -10 "},"È":{"ha":783,"x_min":79,"x_max":761,"o":"m 761 0 l 761 26 l 107 26 l 107 479 l 681 479 l 681 504 l 107 504 l 107 915 l 754 915 l 754 942 l 79 942 l 79 0 l 761 0 m 482 1003 l 324 1174 q 303 1175 313 1185 q 301 1156 290 1168 l 458 986 q 481 983 469 975 q 482 1003 492 992 "},"É":{"ha":783,"x_min":79,"x_max":761,"o":"m 761 0 l 761 26 l 107 26 l 107 479 l 681 479 l 681 504 l 107 504 l 107 915 l 754 915 l 754 942 l 79 942 l 79 0 l 761 0 m 482 1156 q 482 1175 492 1167 q 460 1174 469 1185 l 301 1003 q 303 983 292 992 q 325 986 315 975 l 482 1156 "},"Ê":{"ha":783,"x_min":79,"x_max":761,"o":"m 761 0 l 761 26 l 107 26 l 107 479 l 681 479 l 681 504 l 107 504 l 107 915 l 754 915 l 754 942 l 79 942 l 79 0 l 761 0 m 543 1003 l 404 1190 l 375 1190 l 240 1003 l 269 1003 l 389 1164 l 508 1003 l 543 1003 "},"Ë":{"ha":783,"x_min":79,"x_max":761,"o":"m 761 0 l 761 26 l 107 26 l 107 479 l 681 479 l 681 504 l 107 504 l 107 915 l 754 915 l 754 942 l 79 942 l 79 0 l 761 0 m 486 1029 l 486 1106 l 486 1106 q 472 1121 486 1121 q 457 1106 457 1121 l 457 1029 l 457 1029 q 472 1014 457 1014 q 486 1029 486 1014 m 326 1029 l 326 1106 l 326 1106 q 311 1121 326 1121 q 297 1106 297 1121 l 297 1029 l 297 1029 q 311 1014 297 1014 q 326 1029 326 1014 "},"Ì":{"ha":186,"x_min":-8,"x_max":193,"o":"m 108 0 l 108 942 l 79 942 l 79 0 l 108 0 m 183 1024 l 26 1194 q 4 1197 15 1207 q 3 1176 -8 1189 l 160 1007 q 182 1004 169 996 q 183 1024 193 1013 "},"Í":{"ha":186,"x_min":-8,"x_max":194,"o":"m 108 0 l 108 942 l 79 942 l 79 0 l 108 0 m 183 1172 q 183 1192 194 1183 q 160 1189 171 1201 l 3 1018 q 4 999 -8 1007 q 26 1001 17 990 l 183 1172 "},"Î":{"ha":186,"x_min":-58,"x_max":244,"o":"m 108 0 l 108 942 l 79 942 l 79 0 l 108 0 m 244 997 l 106 1185 l 76 1185 l -58 997 l -29 997 l 92 1158 l 211 997 l 244 997 "},"Ï":{"ha":186,"x_min":-3,"x_max":189,"o":"m 108 0 l 108 942 l 79 942 l 79 0 l 108 0 m 189 1040 l 189 1117 l 189 1117 q 174 1131 188 1131 q 160 1117 160 1131 l 160 1040 l 160 1040 q 174 1024 160 1024 q 189 1040 189 1024 m 28 1040 l 28 1117 l 28 1117 q 14 1131 26 1131 q -3 1117 -3 1131 l -3 1040 l -3 1040 q 14 1024 -3 1024 q 28 1040 28 1024 "},"Ð":{"ha":944,"x_min":28,"x_max":885,"o":"m 79 458 l 79 0 l 385 0 q 747 118 615 0 q 885 469 885 240 q 775 815 885 694 q 438 942 661 942 l 79 942 l 79 486 l 28 486 l 28 458 l 79 458 m 383 458 l 383 486 l 108 486 l 108 915 l 436 915 q 754 796 647 915 q 856 469 856 683 q 729 138 856 253 q 389 26 608 26 l 108 26 l 108 458 l 383 458 "},"Ñ":{"ha":944,"x_min":79,"x_max":865,"o":"m 865 0 l 865 942 l 836 942 l 836 31 q 479 486 721 185 q 122 942 238 788 l 79 942 l 79 0 l 108 0 l 108 913 l 822 0 l 865 0 m 661 1093 l 638 1106 q 615 1052 636 1076 q 567 1028 594 1028 q 474 1066 547 1028 q 379 1104 401 1104 q 315 1077 346 1104 q 283 1017 283 1050 l 308 1000 q 330 1053 310 1029 q 378 1078 350 1078 q 470 1040 397 1078 q 567 1001 543 1001 q 631 1029 603 1001 q 661 1093 658 1057 "},"Ò":{"ha":1051,"x_min":49,"x_max":1006,"o":"m 1006 471 q 878 815 1006 693 q 526 938 750 938 q 176 815 303 938 q 49 471 49 693 q 175 118 49 246 q 526 -10 301 -10 q 878 119 750 -10 q 1006 471 1006 247 m 976 471 q 857 138 976 260 q 526 17 738 17 q 198 139 318 17 q 78 471 78 261 q 197 796 78 681 q 526 911 317 911 q 857 796 738 911 q 976 471 976 681 m 617 1021 l 460 1192 q 438 1194 449 1204 q 436 1174 426 1186 l 594 1004 q 615 1001 604 994 q 617 1021 626 1010 "},"Ó":{"ha":1051,"x_min":49,"x_max":1006,"o":"m 1006 471 q 878 815 1006 693 q 526 938 750 938 q 176 815 303 938 q 49 471 49 693 q 175 118 49 246 q 526 -10 301 -10 q 878 119 750 -10 q 1006 471 1006 247 m 976 471 q 857 138 976 260 q 526 17 738 17 q 198 139 318 17 q 78 471 78 261 q 197 796 78 681 q 526 911 317 911 q 857 796 738 911 q 976 471 976 681 m 617 1179 q 617 1200 628 1192 q 593 1197 603 1208 l 436 1026 q 433 1010 428 1018 q 446 1004 438 1004 q 458 1010 451 1004 l 617 1179 "},"Ô":{"ha":1051,"x_min":49,"x_max":1006,"o":"m 1006 471 q 878 815 1006 693 q 526 938 750 938 q 176 815 303 938 q 49 471 49 693 q 175 118 49 246 q 526 -10 301 -10 q 878 119 750 -10 q 1006 471 1006 247 m 976 471 q 857 138 976 260 q 526 17 738 17 q 198 139 318 17 q 78 471 78 261 q 197 796 78 681 q 526 911 317 911 q 857 796 738 911 q 976 471 976 681 m 676 1014 l 538 1200 l 508 1200 l 375 1014 l 404 1014 l 524 1174 l 643 1014 l 676 1014 "},"Õ":{"ha":1051,"x_min":49,"x_max":1006,"o":"m 1006 471 q 878 815 1006 693 q 526 938 750 938 q 176 815 303 938 q 49 471 49 693 q 175 118 49 246 q 526 -10 301 -10 q 878 119 750 -10 q 1006 471 1006 247 m 976 471 q 857 138 976 260 q 526 17 738 17 q 198 139 318 17 q 78 471 78 261 q 197 796 78 681 q 526 911 317 911 q 857 796 738 911 q 976 471 976 681 m 718 1121 l 694 1135 q 672 1081 693 1106 q 622 1057 651 1057 q 531 1095 604 1057 q 436 1133 458 1133 q 372 1106 403 1133 q 340 1046 340 1079 l 364 1029 q 386 1083 367 1060 q 435 1107 406 1107 q 527 1069 454 1107 q 622 1031 600 1031 q 686 1058 658 1031 q 718 1121 714 1085 "},"Ö":{"ha":1051,"x_min":49,"x_max":1006,"o":"m 1006 471 q 878 815 1006 693 q 526 938 750 938 q 176 815 303 938 q 49 471 49 693 q 175 118 49 246 q 526 -10 301 -10 q 878 119 750 -10 q 1006 471 1006 247 m 976 471 q 857 138 976 260 q 526 17 738 17 q 198 139 318 17 q 78 471 78 261 q 197 796 78 681 q 526 911 317 911 q 857 796 738 911 q 976 471 976 681 m 621 1040 l 621 1117 l 621 1117 q 607 1131 619 1131 q 592 1117 592 1131 l 592 1040 l 592 1040 q 607 1024 592 1024 q 621 1040 621 1024 m 461 1040 l 461 1117 l 461 1117 q 446 1131 460 1131 q 432 1117 432 1131 l 432 1040 l 432 1040 q 446 1024 432 1024 q 461 1040 461 1024 "},"×":{"ha":681,"x_min":132,"x_max":550,"o":"m 550 176 l 361 350 l 549 518 l 528 538 l 340 368 l 154 538 l 133 518 l 319 350 l 132 179 l 151 161 l 340 329 l 529 158 l 550 176 "},"Ø":{"ha":1051,"x_min":49,"x_max":1006,"o":"m 314 61 q 192 150 246 90 q 78 471 78 275 q 197 796 78 681 q 526 911 317 911 q 713 883 631 911 l 314 61 m 736 874 q 864 788 810 843 q 976 471 976 671 q 857 138 976 260 q 526 17 738 17 q 339 50 421 17 l 736 874 m 788 978 l 758 978 l 725 908 q 526 938 638 938 q 176 815 303 938 q 49 471 49 693 q 169 129 49 261 q 301 35 225 68 l 265 -40 l 294 -40 l 325 24 q 526 -10 414 -10 q 878 119 750 -10 q 1006 471 1006 247 q 883 807 1006 682 q 750 899 826 865 l 788 978 "},"Ù":{"ha":922,"x_min":79,"x_max":842,"o":"m 842 347 l 842 942 l 813 942 l 813 346 q 461 17 813 17 q 108 351 108 17 l 108 942 l 79 942 l 79 350 q 176 72 79 160 q 461 -10 268 -10 q 747 74 651 -10 q 842 347 842 158 m 551 1011 l 394 1181 q 372 1183 383 1193 q 371 1164 360 1175 l 528 993 q 550 990 540 983 q 551 1011 563 1000 "},"Ú":{"ha":922,"x_min":79,"x_max":842,"o":"m 842 347 l 842 942 l 813 942 l 813 346 q 461 17 813 17 q 108 351 108 17 l 108 942 l 79 942 l 79 350 q 176 72 79 160 q 461 -10 268 -10 q 747 74 651 -10 q 842 347 842 158 m 551 1167 q 551 1186 563 1178 q 528 1183 539 1196 l 371 1014 q 372 993 360 1001 q 394 996 383 986 l 551 1167 "},"Û":{"ha":922,"x_min":79,"x_max":842,"o":"m 842 347 l 842 942 l 813 942 l 813 346 q 461 17 813 17 q 108 351 108 17 l 108 942 l 79 942 l 79 350 q 176 72 79 160 q 461 -10 268 -10 q 747 74 651 -10 q 842 347 842 158 m 613 1000 l 474 1188 l 444 1188 l 310 1000 l 339 1000 l 458 1161 l 579 1000 l 613 1000 "},"Ü":{"ha":922,"x_min":79,"x_max":842,"o":"m 842 347 l 842 942 l 813 942 l 813 346 q 461 17 813 17 q 108 351 108 17 l 108 942 l 79 942 l 79 350 q 176 72 79 160 q 461 -10 268 -10 q 747 74 651 -10 q 842 347 842 158 m 556 1040 l 556 1117 l 556 1117 q 542 1131 556 1131 q 526 1117 526 1131 l 526 1040 l 526 1040 q 542 1024 526 1024 q 556 1040 556 1024 m 396 1040 l 396 1117 l 396 1117 q 381 1131 396 1131 q 367 1117 367 1131 l 367 1040 l 367 1040 q 381 1024 367 1024 q 396 1040 396 1024 "},"Ý":{"ha":913,"x_min":22,"x_max":892,"o":"m 892 942 l 857 942 l 457 490 l 58 942 l 22 942 l 443 463 l 443 0 l 472 0 l 472 463 l 892 942 m 549 1172 q 549 1192 558 1183 q 525 1189 536 1201 l 367 1018 q 368 999 357 1007 q 390 1001 381 990 l 549 1172 "},"Þ":{"ha":590,"x_min":81,"x_max":514,"o":"m 110 267 l 110 701 l 326 701 q 483 482 483 701 q 328 268 483 269 l 110 267 m 514 482 q 328 728 514 728 l 110 728 l 110 942 l 81 942 l 81 0 l 110 0 l 110 243 l 326 243 q 514 482 514 243 "},"ß":{"ha":701,"x_min":32,"x_max":661,"o":"m 81 567 l 81 0 l 110 0 l 110 718 q 326 932 110 932 q 503 903 449 932 q 576 758 576 864 q 483 617 576 654 q 294 593 425 593 l 294 567 q 531 494 438 567 q 632 276 632 417 q 294 -15 632 -15 l 294 -42 q 556 32 461 -42 q 661 276 661 114 q 582 481 661 390 q 389 578 500 576 q 542 624 493 589 q 606 765 603 668 q 329 958 611 958 q 85 754 94 958 q 81 594 81 667 l 32 594 l 32 567 l 81 567 "},"à":{"ha":767,"x_min":40,"x_max":694,"o":"m 442 757 l 285 928 q 263 931 272 940 q 261 910 249 922 l 418 740 q 440 738 429 731 q 442 757 451 746 m 693 138 l 693 690 l 664 690 l 664 522 q 367 693 597 693 q 136 622 225 693 q 40 407 40 546 q 135 196 40 272 q 361 125 222 125 q 664 294 583 125 l 664 138 l 693 138 m 664 407 q 571 213 664 286 q 360 146 485 146 q 153 213 232 146 q 68 407 68 283 q 154 603 68 531 q 360 672 235 672 q 575 608 494 672 q 664 407 664 538 m 694 -1 l 694 26 l 46 26 l 46 -1 l 694 -1 "},"á":{"ha":767,"x_min":40,"x_max":694,"o":"m 458 910 q 458 931 468 922 q 435 928 446 940 l 278 757 q 275 740 269 749 q 288 735 279 735 q 300 740 293 735 l 458 910 m 693 138 l 693 690 l 664 690 l 664 522 q 367 693 597 693 q 136 622 225 693 q 40 407 40 546 q 135 196 40 272 q 361 125 222 125 q 664 294 583 125 l 664 138 l 693 138 m 664 407 q 571 213 664 286 q 360 146 485 146 q 153 213 232 146 q 68 407 68 283 q 154 603 68 531 q 360 672 235 672 q 575 608 494 672 q 664 407 664 538 m 694 -1 l 694 26 l 46 26 l 46 -1 l 694 -1 "},"â":{"ha":767,"x_min":40,"x_max":694,"o":"m 518 750 l 379 936 l 350 936 l 217 750 l 246 750 l 365 910 l 485 750 l 518 750 m 693 138 l 693 690 l 664 690 l 664 522 q 367 693 597 693 q 136 622 225 693 q 40 407 40 546 q 135 196 40 272 q 361 125 222 125 q 664 294 583 125 l 664 138 l 693 138 m 664 407 q 571 213 664 286 q 360 146 485 146 q 153 213 232 146 q 68 407 68 283 q 154 603 68 531 q 360 672 235 672 q 575 608 494 672 q 664 407 664 538 m 694 -1 l 694 26 l 46 26 l 46 -1 l 694 -1 "},"ã":{"ha":767,"x_min":40,"x_max":694,"o":"m 558 857 l 535 871 q 513 817 533 842 q 463 793 492 793 q 372 831 444 793 q 276 869 299 869 q 212 842 243 869 q 181 782 181 815 l 204 765 q 226 819 207 796 q 275 843 246 843 q 366 805 293 843 q 463 767 439 767 q 526 794 499 767 q 558 857 554 821 m 693 138 l 693 690 l 664 690 l 664 522 q 367 693 597 693 q 136 622 225 693 q 40 407 40 546 q 135 196 40 272 q 361 125 222 125 q 664 294 583 125 l 664 138 l 693 138 m 664 407 q 571 213 664 286 q 360 146 485 146 q 153 213 232 146 q 68 407 68 283 q 154 603 68 531 q 360 672 235 672 q 575 608 494 672 q 664 407 664 538 m 694 -1 l 694 26 l 46 26 l 46 -1 l 694 -1 "},"ä":{"ha":767,"x_min":40,"x_max":694,"o":"m 479 776 l 479 853 l 479 853 q 465 867 479 867 q 450 853 450 867 l 450 776 l 450 776 q 465 760 450 760 q 479 776 479 760 m 319 776 l 319 853 l 319 853 q 304 867 319 867 q 290 853 290 867 l 290 776 l 290 776 q 304 760 290 760 q 319 776 319 760 m 693 138 l 693 690 l 664 690 l 664 522 q 367 693 597 693 q 136 622 225 693 q 40 407 40 546 q 135 196 40 272 q 361 125 222 125 q 664 294 583 125 l 664 138 l 693 138 m 664 407 q 571 213 664 286 q 360 146 485 146 q 153 213 232 146 q 68 407 68 283 q 154 603 68 531 q 360 672 235 672 q 575 608 494 672 q 664 407 664 538 m 694 -1 l 694 26 l 46 26 l 46 -1 l 694 -1 "},"å":{"ha":767,"x_min":40,"x_max":694,"o":"m 375 769 q 451 798 419 769 q 482 871 482 826 q 451 944 482 915 q 375 972 419 972 q 297 944 329 972 q 265 871 265 915 q 297 798 265 826 q 375 769 329 769 m 375 943 q 429 923 407 943 q 451 871 451 903 q 429 819 451 839 q 375 799 407 799 q 320 819 343 799 q 297 871 297 839 q 320 923 297 903 q 375 943 343 943 m 693 138 l 693 690 l 664 690 l 664 522 q 367 693 597 693 q 136 622 225 693 q 40 407 40 546 q 135 196 40 272 q 361 125 222 125 q 664 294 583 125 l 664 138 l 693 138 m 664 407 q 571 213 664 286 q 360 146 485 146 q 153 213 232 146 q 68 407 68 283 q 154 603 68 531 q 360 672 235 672 q 575 608 494 672 q 664 407 664 538 m 694 -1 l 694 26 l 46 26 l 46 -1 l 694 -1 "},"æ":{"ha":1376,"x_min":40,"x_max":1324,"o":"m 663 376 q 558 204 650 268 q 360 146 475 146 q 153 213 232 146 q 68 407 68 283 q 154 603 68 531 q 360 672 235 672 q 563 617 483 672 q 663 439 651 556 q 661 407 661 424 q 663 376 661 392 m 1324 406 l 1324 429 q 1221 632 1324 561 q 993 693 1132 693 q 750 613 839 693 q 693 540 714 581 l 693 690 l 664 690 l 664 522 q 367 693 597 693 q 136 622 225 693 q 40 407 40 546 q 135 196 40 272 q 361 125 222 125 q 664 294 583 125 l 664 138 l 693 138 l 693 264 q 986 125 767 125 q 1299 286 1239 125 l 1268 286 q 1150 178 1236 214 q 989 146 1078 146 q 693 353 725 146 l 693 404 l 1324 406 m 1288 425 l 693 425 l 693 460 q 800 621 713 565 q 993 672 879 672 q 1197 613 1118 672 q 1288 425 1288 546 m 1319 -1 l 1319 26 l 46 26 l 46 -1 l 1319 -1 "},"ç":{"ha":729,"x_min":46,"x_max":679,"o":"m 679 196 l 651 208 q 553 60 633 113 q 379 11 481 11 q 156 97 238 11 q 75 326 75 183 q 157 571 75 479 q 393 668 243 668 q 644 489 600 668 l 671 503 q 568 647 647 596 q 396 694 496 694 q 138 594 231 694 q 46 326 46 493 q 135 78 46 171 q 381 -15 225 -15 q 569 36 492 -15 q 679 196 656 92 m 531 -150 q 417 -62 531 -62 q 396 -64 401 -62 l 399 13 l 369 13 l 358 -83 l 358 -90 q 413 -89 369 -85 q 496 -144 496 -96 q 383 -215 496 -215 q 275 -194 339 -215 l 263 -219 q 388 -242 338 -242 q 531 -150 531 -242 "},"è":{"ha":729,"x_min":36,"x_max":699,"o":"m 456 757 l 297 928 q 275 931 286 940 q 274 910 264 922 l 432 740 q 454 738 443 731 q 456 757 467 746 m 699 406 l 699 429 q 596 632 699 561 q 368 693 507 693 q 136 622 228 693 q 36 407 36 544 q 129 192 36 264 q 361 125 213 125 q 674 286 614 125 l 643 286 q 525 178 611 214 q 364 146 453 146 q 64 404 68 146 l 699 406 m 663 425 l 64 425 q 161 611 71 546 q 368 672 243 672 q 572 613 493 672 q 663 425 663 546 m 694 -1 l 694 26 l 46 26 l 46 -1 l 694 -1 "},"é":{"ha":729,"x_min":36,"x_max":699,"o":"m 456 913 q 460 924 460 919 q 456 933 460 929 q 432 931 442 942 l 275 760 q 272 743 267 751 q 285 738 276 738 q 297 743 290 738 l 456 913 m 699 406 l 699 429 q 596 632 699 561 q 368 693 507 693 q 136 622 228 693 q 36 407 36 544 q 129 192 36 264 q 361 125 213 125 q 674 286 614 125 l 643 286 q 525 178 611 214 q 364 146 453 146 q 64 404 68 146 l 699 406 m 663 425 l 64 425 q 161 611 71 546 q 368 672 243 672 q 572 613 493 672 q 663 425 663 546 m 694 -1 l 694 26 l 46 26 l 46 -1 l 694 -1 "},"ê":{"ha":729,"x_min":36,"x_max":699,"o":"m 515 750 l 378 936 l 349 936 l 214 750 l 243 750 l 363 910 l 482 750 l 515 750 m 699 406 l 699 429 q 596 632 699 561 q 368 693 507 693 q 136 622 228 693 q 36 407 36 544 q 129 192 36 264 q 361 125 213 125 q 674 286 614 125 l 643 286 q 525 178 611 214 q 364 146 453 146 q 64 404 68 146 l 699 406 m 663 425 l 64 425 q 161 611 71 546 q 368 672 243 672 q 572 613 493 672 q 663 425 663 546 m 694 -1 l 694 26 l 46 26 l 46 -1 l 694 -1 "},"ë":{"ha":729,"x_min":36,"x_max":699,"o":"m 461 776 l 461 853 l 461 853 q 446 867 461 867 q 432 853 432 867 l 432 776 l 432 776 q 446 760 432 760 q 461 776 461 760 m 300 776 l 300 853 l 300 853 q 286 867 300 867 q 271 853 271 867 l 271 776 l 271 776 q 286 760 271 760 q 300 776 300 760 m 699 406 l 699 429 q 596 632 699 561 q 368 693 507 693 q 136 622 228 693 q 36 407 36 544 q 129 192 36 264 q 361 125 213 125 q 674 286 614 125 l 643 286 q 525 178 611 214 q 364 146 453 146 q 64 404 68 146 l 699 406 m 663 425 l 64 425 q 161 611 71 546 q 368 672 243 672 q 572 613 493 672 q 663 425 663 546 m 694 -1 l 694 26 l 46 26 l 46 -1 l 694 -1 "},"ì":{"ha":189,"x_min":-7,"x_max":196,"o":"m 185 757 l 26 928 q 6 931 15 940 q 4 910 -7 922 l 161 740 q 183 738 172 731 q 185 757 196 746 m 110 138 l 110 679 l 81 679 l 81 138 l 110 138 m 114 -1 l 114 26 l 76 26 l 76 -1 l 114 -1 "},"í":{"ha":189,"x_min":-6,"x_max":194,"o":"m 185 906 q 185 925 194 917 q 163 922 174 935 l 4 751 q 6 732 -6 740 q 28 735 18 724 l 185 906 m 110 138 l 110 679 l 81 679 l 81 138 l 110 138 m 114 -1 l 114 26 l 76 26 l 76 -1 l 114 -1 "},"î":{"ha":189,"x_min":-47,"x_max":240,"o":"m 240 750 l 110 936 l 81 936 l -47 750 l -18 750 l 96 910 l 207 750 l 240 750 m 110 138 l 110 679 l 81 679 l 81 138 l 110 138 m 114 -1 l 114 26 l 76 26 l 76 -1 l 114 -1 "},"ï":{"ha":189,"x_min":4,"x_max":194,"o":"m 194 776 l 194 853 l 194 853 q 179 867 194 867 q 165 853 165 867 l 165 776 l 165 776 q 179 760 165 760 q 194 776 194 760 m 33 776 l 33 853 l 33 853 q 19 867 33 867 q 4 853 4 867 l 4 776 l 4 776 q 19 760 4 760 q 33 776 33 760 m 110 138 l 110 679 l 81 679 l 81 138 l 110 138 m 114 -1 l 114 26 l 76 26 l 76 -1 l 114 -1 "},"ð":{"ha":783,"x_min":40,"x_max":693,"o":"m 664 338 q 582 107 664 199 q 360 11 497 11 q 142 107 221 11 q 68 338 68 196 q 143 569 68 478 q 360 668 222 668 q 588 575 507 668 q 664 338 664 488 m 664 814 l 664 482 q 553 640 632 585 q 367 694 475 694 q 124 592 211 694 q 40 338 40 496 q 122 88 40 183 q 361 -15 210 -15 q 664 196 583 -15 l 664 0 l 693 0 l 693 942 l 664 942 l 664 842 l 203 842 l 203 814 l 664 814 "},"ñ":{"ha":729,"x_min":81,"x_max":646,"o":"m 646 0 l 646 463 q 568 638 646 576 q 381 694 497 694 q 208 647 279 694 q 110 501 132 597 l 110 678 l 81 678 l 81 0 l 110 0 l 110 382 q 183 588 110 508 q 382 668 257 668 q 553 611 489 668 q 617 449 617 554 l 617 0 l 646 0 m 558 857 l 535 871 q 513 817 533 842 q 464 793 492 793 q 372 831 444 793 q 276 869 299 869 q 213 842 244 869 q 181 782 181 814 l 206 765 q 227 819 207 794 q 275 843 247 843 q 367 805 294 843 q 464 767 440 767 q 528 794 500 767 q 558 857 556 821 "},"ò":{"ha":757,"x_min":40,"x_max":718,"o":"m 469 757 l 313 928 q 290 931 300 940 q 289 910 276 922 l 446 740 q 468 738 457 731 q 469 757 479 746 m 718 408 q 615 624 718 547 q 381 693 524 693 q 144 624 238 693 q 40 408 40 547 q 143 194 40 271 q 378 125 235 125 q 614 193 521 125 q 718 408 718 269 m 689 408 q 594 211 689 282 q 379 146 510 146 q 164 211 249 146 q 69 408 69 282 q 163 607 69 536 q 379 672 247 672 q 596 608 513 672 q 689 408 689 538 m 708 -1 l 708 26 l 46 26 l 46 -1 l 708 -1 "},"ó":{"ha":757,"x_min":40,"x_max":718,"o":"m 469 906 q 469 925 479 917 q 446 922 457 935 l 288 751 q 290 732 278 740 q 311 735 301 724 l 469 906 m 718 408 q 615 624 718 547 q 381 693 524 693 q 144 624 238 693 q 40 408 40 547 q 143 194 40 271 q 378 125 235 125 q 614 193 521 125 q 718 408 718 269 m 689 408 q 594 211 689 282 q 379 146 510 146 q 164 211 249 146 q 69 408 69 282 q 163 607 69 536 q 379 672 247 672 q 596 608 513 672 q 689 408 689 538 m 708 -1 l 708 26 l 46 26 l 46 -1 l 708 -1 "},"ô":{"ha":757,"x_min":40,"x_max":718,"o":"m 531 750 l 392 936 l 363 936 l 228 750 l 257 750 l 378 910 l 497 750 l 531 750 m 718 408 q 615 624 718 547 q 381 693 524 693 q 144 624 238 693 q 40 408 40 547 q 143 194 40 271 q 378 125 235 125 q 614 193 521 125 q 718 408 718 269 m 689 408 q 594 211 689 282 q 379 146 510 146 q 164 211 249 146 q 69 408 69 282 q 163 607 69 536 q 379 672 247 672 q 596 608 513 672 q 689 408 689 538 m 708 -1 l 708 26 l 46 26 l 46 -1 l 708 -1 "},"õ":{"ha":757,"x_min":40,"x_max":718,"o":"m 568 857 l 546 871 q 474 793 535 793 q 381 831 454 793 q 288 869 308 869 q 221 844 251 869 q 190 782 190 818 l 215 765 q 237 819 217 796 q 286 843 257 843 q 376 805 303 843 q 474 767 450 767 q 537 794 510 767 q 568 857 564 821 m 718 408 q 615 624 718 547 q 381 693 524 693 q 144 624 238 693 q 40 408 40 547 q 143 194 40 271 q 378 125 235 125 q 614 193 521 125 q 718 408 718 269 m 689 408 q 594 211 689 282 q 379 146 510 146 q 164 211 249 146 q 69 408 69 282 q 163 607 69 536 q 379 672 247 672 q 596 608 513 672 q 689 408 689 538 m 708 -1 l 708 26 l 46 26 l 46 -1 l 708 -1 "},"ö":{"ha":757,"x_min":40,"x_max":718,"o":"m 474 776 l 474 853 l 474 853 q 460 867 474 867 q 444 853 444 867 l 444 776 l 444 776 q 460 760 444 760 q 474 776 474 760 m 314 776 l 314 853 l 314 853 q 299 867 314 867 q 285 853 285 867 l 285 776 l 285 776 q 299 760 285 760 q 314 776 314 760 m 718 408 q 615 624 718 547 q 381 693 524 693 q 144 624 238 693 q 40 408 40 547 q 143 194 40 271 q 378 125 235 125 q 614 193 521 125 q 718 408 718 269 m 689 408 q 594 211 689 282 q 379 146 510 146 q 164 211 249 146 q 69 408 69 282 q 163 607 69 536 q 379 672 247 672 q 596 608 513 672 q 689 408 689 538 m 708 -1 l 708 26 l 46 26 l 46 -1 l 708 -1 "},"÷":{"ha":822,"x_min":69,"x_max":732,"o":"m 732 321 l 732 347 l 69 347 l 69 321 l 732 321 m 426 118 l 426 208 q 411 224 426 224 q 397 208 397 224 l 397 118 q 411 103 397 103 q 426 118 426 103 m 426 449 l 426 539 q 411 553 426 553 q 397 539 397 553 l 397 449 q 411 433 397 433 q 426 449 426 433 "},"ø":{"ha":757,"x_min":40,"x_max":718,"o":"m 218 179 q 147 228 179 199 q 69 410 69 301 q 163 610 69 538 q 379 674 247 674 q 506 656 449 674 l 218 179 m 529 646 q 611 593 575 628 q 689 410 689 519 q 594 213 689 283 q 379 149 510 149 q 242 171 301 149 l 529 646 m 592 749 l 563 749 l 518 676 q 381 694 457 694 q 144 626 238 694 q 40 410 40 549 q 207 158 40 233 l 164 88 l 193 88 l 231 149 q 378 126 294 126 q 614 196 521 126 q 718 410 718 272 q 633 610 718 532 q 543 665 593 646 l 592 749 m 708 -1 l 708 26 l 46 26 l 46 -1 l 708 -1 "},"ù":{"ha":729,"x_min":75,"x_max":654,"o":"m 456 751 l 297 922 q 276 925 285 935 q 275 906 264 917 l 432 735 q 454 732 443 725 q 456 751 467 740 m 646 136 l 646 678 l 617 678 l 617 383 q 540 203 617 265 q 347 144 469 144 q 185 182 247 144 q 110 322 110 228 l 110 678 l 81 678 l 81 321 q 165 165 81 217 q 347 124 235 124 q 508 157 439 124 q 617 274 590 196 l 617 136 l 646 136 m 654 -1 l 654 26 l 75 26 l 75 -1 l 654 -1 "},"ú":{"ha":729,"x_min":75,"x_max":654,"o":"m 456 910 q 456 931 467 922 q 432 928 443 940 l 275 757 q 276 738 265 746 q 299 740 289 729 l 456 910 m 646 136 l 646 678 l 617 678 l 617 383 q 540 203 617 265 q 347 144 469 144 q 185 182 247 144 q 110 322 110 228 l 110 678 l 81 678 l 81 321 q 165 165 81 217 q 347 124 235 124 q 508 157 439 124 q 617 274 590 196 l 617 136 l 646 136 m 654 -1 l 654 26 l 75 26 l 75 -1 l 654 -1 "},"û":{"ha":729,"x_min":75,"x_max":654,"o":"m 515 750 l 378 936 l 349 936 l 214 750 l 243 750 l 363 910 l 482 750 l 515 750 m 646 136 l 646 678 l 617 678 l 617 383 q 540 203 617 265 q 347 144 469 144 q 185 182 247 144 q 110 322 110 228 l 110 678 l 81 678 l 81 321 q 165 165 81 217 q 347 124 235 124 q 508 157 439 124 q 617 274 590 196 l 617 136 l 646 136 m 654 -1 l 654 26 l 75 26 l 75 -1 l 654 -1 "},"ü":{"ha":729,"x_min":75,"x_max":654,"o":"m 460 776 l 460 853 l 460 853 q 444 867 460 867 q 431 853 431 867 l 431 776 l 431 776 q 444 760 431 760 q 460 776 460 760 m 299 776 l 299 853 l 299 853 q 285 867 299 867 q 269 853 269 867 l 269 776 l 269 776 q 285 760 269 760 q 299 776 299 760 m 646 136 l 646 678 l 617 678 l 617 383 q 540 203 617 265 q 347 144 469 144 q 185 182 247 144 q 110 322 110 228 l 110 678 l 81 678 l 81 321 q 165 165 81 217 q 347 124 235 124 q 508 157 439 124 q 617 274 590 196 l 617 136 l 646 136 m 654 -1 l 654 26 l 75 26 l 75 -1 l 654 -1 "},"ý":{"ha":703,"x_min":50,"x_max":646,"o":"m 646 24 l 646 678 l 617 678 l 617 310 q 551 96 617 174 q 347 11 481 11 q 174 68 238 11 q 110 233 110 125 l 110 678 l 81 678 l 81 232 q 153 48 81 111 q 347 -15 225 -15 q 519 33 446 -15 q 617 172 592 81 l 617 25 q 338 -222 617 -222 q 79 -35 94 -222 l 50 -35 q 143 -201 56 -146 q 335 -249 217 -249 q 646 24 646 -249 m 443 913 q 447 924 447 919 q 443 933 447 929 q 419 931 429 942 l 261 760 q 258 744 253 753 q 272 738 264 738 q 285 743 278 738 l 443 913 "},"þ":{"ha":783,"x_min":81,"x_max":731,"o":"m 731 342 q 649 594 731 500 q 406 694 563 694 q 219 638 299 694 q 110 481 139 582 l 110 942 l 81 942 l 81 -233 l 110 -233 l 110 197 q 219 40 140 96 q 407 -15 299 -15 q 650 86 565 -15 q 731 342 731 181 m 703 340 q 631 108 703 197 q 413 11 553 11 q 183 104 261 11 q 110 344 110 190 q 192 577 110 486 q 414 668 274 668 q 631 571 553 668 q 703 340 703 482 "},"ÿ":{"ha":708,"x_min":50,"x_max":646,"o":"m 646 24 l 646 678 l 617 678 l 617 310 q 551 96 617 174 q 347 11 481 11 q 174 68 238 11 q 110 233 110 125 l 110 678 l 81 678 l 81 232 q 153 48 81 111 q 347 -15 225 -15 q 519 33 446 -15 q 617 172 592 81 l 617 25 q 338 -222 617 -222 q 79 -35 94 -222 l 50 -35 q 143 -201 56 -146 q 335 -249 217 -249 q 646 24 646 -249 m 450 776 l 450 853 l 450 853 q 435 867 449 867 q 421 853 421 867 l 421 776 l 421 776 q 435 760 421 760 q 450 776 450 760 m 289 776 l 289 853 l 289 853 q 275 867 288 867 q 260 853 260 867 l 260 776 l 260 776 q 275 760 260 760 q 289 776 289 760 "},"ı":{"ha":1389,"x_min":0,"x_max":0,"o":""},"ˇ":{"ha":189,"x_min":-61,"x_max":240,"o":"m 240 950 l 207 950 l 88 789 l -32 950 l -61 950 l 72 763 l 101 763 l 240 950 "},"˚":{"ha":189,"x_min":-21,"x_max":197,"o":"m 89 790 q 165 819 133 790 q 197 892 197 847 q 165 965 197 936 q 89 993 133 993 q 12 965 44 993 q -21 892 -21 936 q 12 819 -21 847 q 89 790 44 790 m 89 964 q 144 944 121 964 q 167 892 167 924 q 144 840 167 860 q 89 819 121 819 q 34 840 57 819 q 11 892 11 860 q 34 944 11 924 q 89 964 57 964 "},"μ":{"ha":811,"x_min":0,"x_max":0,"o":""}}}
